<?xml version="1.0" encoding="utf-8"?>
<!-- Generator: Adobe Illustrator 26.5.0, SVG Export Plug-In . SVG Version: 6.00 Build 0)  -->
<svg version="1.1" id="Layer_1" xmlns="http://www.w3.org/2000/svg" xmlns:xlink="http://www.w3.org/1999/xlink" x="0px" y="0px"
	 viewBox="0 0 1037 259" style="enable-background:new 0 0 1037 259;" xml:space="preserve">
<style type="text/css">
	.st0{fill:#333333;}
	.st1{fill:#FF7676;}
</style>
<g>
	<circle class="st0" cx="197.5" cy="130" r="122.5"/>
	<g>
		<g>
			<path class="st1" d="M199,165.7c1.1,3.6-0.7,7.5-4.1,9.1c-3,1.4-6.5,0.7-8.6-1.5l-7.8,2.9c-1.9,0.7-3.2,2.3-3.5,4.3l0,0
				c-0.3,2,0.4,3.9,1.9,5.2l6.5,5.4c2.8-1.3,6.2-0.9,8.6,1.4c2.6,2.5,2.9,7.1,0.8,9.9c-2.6,3.6-7.7,4.2-11.1,1.4
				c-2.4-2-3.2-5.1-2.5-7.9l0,0l-6.5-5.4c-1.5-1.3-3.6-1.6-5.5-0.9l0,0c-1.9,0.7-3.2,2.3-3.5,4.3l-1.4,8.2c2.6,1.7,3.9,5,3.1,8.2
				c-0.9,3.6-4.4,6.1-8.1,5.7c-4.5-0.4-7.5-4.6-6.8-8.9c0.5-3,2.8-5.3,5.5-6.1l0,0l1.4-8.2c0.3-2-0.4-3.9-1.9-5.2l0,0
				c-1.5-1.3-3.6-1.6-5.5-0.9l-7.7,2.9c-0.2,3.1-2.3,5.9-5.5,6.8c-3.6,1-7.5-0.8-9-4.2c-1.8-4.1,0.2-8.8,4.3-10.3
				c2.9-1.1,6-0.3,8.1,1.8l0,0l7.7-2.8c1.9-0.7,3.3-2.4,3.6-4.4l0,0c0.3-1.9-0.3-3.7-1.7-5c-11.6-11.1-18.3-26.8-18.2-42.9
				c0-11.4,3.2-22.4,9.3-32c5.9-9.3,14.3-16.8,24.2-21.6c2.5-1.2,5.1-2.3,7.8-3.1c0.2-0.1,0.4-0.1,0.6-0.2c0.5-2.7,2.5-5.1,5.4-5.9
				c3.6-1,7.5,0.8,9.1,4.2c1.8,4.1-0.2,8.8-4.3,10.3c-3.2,1.2-6.6,0.1-8.6-2.4l0,0c-2.4,0.8-4.8,1.7-7.1,2.9
				c-18.4,9-29.9,27.3-29.9,47.9c0,14.1,5.7,27.7,15.6,37.6c1.5,1.5,3.7,2,5.7,1.2l0,0c1.8-0.7,3.1-2.2,3.4-4.1l1.4-8.2
				c-2.5-1.7-3.9-5-3.1-8.2c0.9-3.6,4.4-6.1,8.1-5.7c4.5,0.4,7.5,4.6,6.8,8.9c-0.5,3-2.8,5.4-5.6,6.1l-1.4,8.1
				c-0.3,2,0.4,3.9,1.9,5.2l0,0c1.5,1.3,3.6,1.6,5.5,0.9l7.8-2.9c0.2-2.9,2.1-5.5,5-6.6C193.2,159.1,197.8,161.4,199,165.7z"/>
			<path class="st1" d="M263.4,78.1c-3,1.4-6.5,0.7-8.6-1.5l-7.7,2.8c-1.9,0.7-3.3,2.4-3.6,4.4l0,0c-0.3,1.8,0.3,3.7,1.6,5
				c5.6,5.3,10,11.7,13.1,18.8c3.4,7.6,5.1,15.7,5.1,24.1c0,11.4-3.2,22.4-9.3,32c-5.9,9.3-14.3,16.8-24.2,21.6
				c-2.5,1.2-5.1,2.3-7.8,3.1c-0.2,0.1-0.4,0.1-0.6,0.2c-0.5,2.7-2.5,5.1-5.4,5.9c-3.6,1-7.5-0.8-9.1-4.2c-1.8-4.1,0.2-8.8,4.3-10.3
				c3.2-1.2,6.6-0.1,8.6,2.4l0,0c2.4-0.8,4.8-1.7,7.1-2.9c18.4-9,29.9-27.3,29.9-47.9c0-14.1-5.7-27.7-15.6-37.6
				c-1.5-1.5-3.7-2-5.7-1.2l0,0c-1.8,0.7-3.1,2.2-3.4,4.1l-1.4,8.2c2.5,1.7,3.9,5,3.1,8.2c-0.9,3.6-4.4,6.1-8.1,5.7
				c-4.5-0.4-7.5-4.6-6.8-8.9c0.5-3,2.8-5.4,5.6-6.1l1.4-8.1c0.3-2-0.4-3.9-1.9-5.2l0,0c-1.5-1.3-3.6-1.6-5.5-0.9l-7.8,2.9
				c-0.2,3.1-2.3,5.9-5.5,6.8c-3.6,1-7.5-0.8-9-4.2c-1.8-4.1,0.2-8.8,4.3-10.3c2.9-1.1,6-0.3,8.1,1.8l7.8-2.9
				c1.9-0.7,3.2-2.3,3.5-4.3l0,0c0.3-2-0.4-3.9-1.9-5.2l-6.5-5.4c-2.8,1.3-6.2,0.9-8.6-1.4c-2.7-2.6-3.1-6.9-0.8-9.9
				c2.6-3.6,7.7-4.2,11.1-1.4c2.4,2,3.2,5.1,2.5,7.9l6.5,5.4c1.5,1.3,3.6,1.6,5.5,0.9l0,0c1.9-0.7,3.2-2.3,3.5-4.3l1.4-8.2
				c-2.6-1.7-3.9-5-3.1-8.2c0.9-3.6,4.4-6.1,8.1-5.7c4.5,0.4,7.5,4.6,6.8,8.9c-0.5,3-2.8,5.3-5.5,6.1l-1.4,8.2
				c-0.3,2,0.4,3.9,1.9,5.2l0,0c1.5,1.3,3.6,1.6,5.5,0.9l7.7-2.9c0.2-2.9,2.1-5.5,5-6.6c4.1-1.5,8.7,0.7,10,5
				C268.5,72.7,266.8,76.6,263.4,78.1z"/>
		</g>
	</g>
	<g>
		<path class="st0" d="M351.4,119.4c-0.7,0-1.2-0.2-1.7-0.7c-0.5-0.5-0.7-1-0.7-1.8V71.3c0-0.7,0.2-1.3,0.7-1.8
			c0.5-0.5,1-0.7,1.7-0.7h9.6c0.7,0,1.3,0.2,1.8,0.7c0.5,0.5,0.7,1,0.7,1.8v3.8c1.7-2.1,3.9-3.8,6.5-5.2c2.7-1.4,5.9-2,9.8-2
			c3.8,0,7.2,0.9,10.1,2.6c2.9,1.7,5.2,4.2,6.8,7.5c1.7,3.3,2.5,7.3,2.5,11.9V117c0,0.7-0.2,1.3-0.7,1.8c-0.5,0.5-1.1,0.7-1.7,0.7
			h-10.5c-0.7,0-1.3-0.2-1.8-0.7c-0.5-0.5-0.7-1-0.7-1.8V90.4c0-3.4-0.8-6.1-2.5-8c-1.7-1.9-4.1-2.9-7.3-2.9c-3.1,0-5.5,1-7.3,2.9
			c-1.8,1.9-2.7,4.6-2.7,8V117c0,0.7-0.2,1.3-0.7,1.8c-0.5,0.5-1,0.7-1.7,0.7L351.4,119.4L351.4,119.4z"/>
		<path class="st0" d="M433.4,120.4c-7.5,0-13.4-2.1-17.8-6.2c-4.4-4.2-6.7-10.2-7-18.1c0-0.5,0-1.2,0-2.1s0-1.6,0-2.1
			c0.3-5,1.4-9.3,3.4-12.9c2-3.6,4.8-6.4,8.5-8.3c3.6-1.9,7.9-2.9,12.8-2.9c5.5,0,10,1.1,13.7,3.4c3.7,2.2,6.4,5.3,8.3,9.2
			c1.9,3.9,2.8,8.3,2.8,13.3v2.2c0,0.7-0.2,1.2-0.7,1.7c-0.5,0.5-1.1,0.7-1.7,0.7h-31.9c0,0.1,0,0.2,0,0.3c0,0.2,0,0.3,0,0.4
			c0.1,2.1,0.5,4,1.2,5.7c0.7,1.7,1.8,3.1,3.2,4.1c1.4,1,3.1,1.6,5,1.6c1.6,0,3-0.2,4-0.7c1-0.5,1.9-1,2.6-1.7
			c0.7-0.6,1.2-1.2,1.5-1.7c0.6-0.6,1.1-1.1,1.4-1.2c0.4-0.2,0.9-0.2,1.7-0.2h10.1c0.6,0,1.2,0.2,1.6,0.5c0.4,0.4,0.6,0.9,0.5,1.5
			c-0.1,1-0.6,2.3-1.6,3.9c-1,1.5-2.5,3-4.4,4.5c-1.9,1.5-4.4,2.7-7.3,3.7C440.5,119.9,437.2,120.4,433.4,120.4z M423.8,89.3h19.1
			v-0.2c0-2.3-0.4-4.4-1.1-6.1c-0.7-1.7-1.8-3.1-3.3-4c-1.4-1-3.2-1.5-5.2-1.5c-2,0-3.7,0.5-5.2,1.5c-1.4,1-2.5,2.3-3.3,4
			c-0.7,1.7-1.1,3.8-1.1,6.1L423.8,89.3L423.8,89.3z"/>
		<path class="st0" d="M486.4,120.4c-3.8,0-7.1-0.9-10-2.6c-2.9-1.7-5.1-4.2-6.7-7.5c-1.6-3.3-2.4-7.3-2.4-11.9V71.3
			c0-0.7,0.2-1.3,0.7-1.8c0.5-0.5,1-0.7,1.7-0.7H480c0.7,0,1.3,0.2,1.8,0.7c0.5,0.5,0.7,1,0.7,1.8v26.6c0,7.3,3.2,10.9,9.6,10.9
			c3.1,0,5.5-1,7.3-2.9c1.8-1.9,2.7-4.6,2.7-8V71.3c0-0.7,0.2-1.3,0.7-1.8c0.5-0.5,1-0.7,1.8-0.7h10.3c0.6,0,1.2,0.2,1.7,0.7
			c0.5,0.5,0.7,1,0.7,1.8V117c0,0.7-0.2,1.3-0.7,1.8c-0.5,0.5-1,0.7-1.7,0.7h-9.6c-0.7,0-1.3-0.2-1.8-0.7c-0.5-0.5-0.7-1-0.7-1.8
			v-3.8c-1.7,2.3-3.9,4.1-6.5,5.4C493.4,119.8,490.2,120.4,486.4,120.4z"/>
		<path class="st0" d="M531.6,119.4c-0.7,0-1.2-0.2-1.7-0.7c-0.5-0.5-0.7-1-0.7-1.8V71.3c0-0.6,0.2-1.2,0.7-1.7
			c0.5-0.5,1-0.7,1.7-0.7h9.6c0.6,0,1.2,0.2,1.7,0.7c0.5,0.5,0.7,1.1,0.7,1.7v3.9c1.6-2,3.6-3.6,6-4.7c2.4-1.1,5.1-1.7,8.2-1.7h4.2
			c0.6,0,1.2,0.2,1.7,0.7c0.5,0.5,0.7,1,0.7,1.8v8.4c0,0.7-0.2,1.3-0.7,1.8c-0.5,0.5-1,0.7-1.7,0.7h-8.6c-2.9,0-5.1,0.8-6.7,2.4
			c-1.6,1.6-2.4,3.9-2.4,6.8v25.8c0,0.7-0.2,1.3-0.7,1.8c-0.5,0.5-1,0.7-1.8,0.7h-10.2V119.4z"/>
		<path class="st0" d="M594.2,120.4c-5.4,0-9.9-0.9-13.6-2.7c-3.6-1.8-6.4-4.3-8.3-7.7c-1.9-3.3-3-7.2-3.2-11.6
			c-0.1-1.3-0.1-2.8-0.1-4.4c0-1.7,0-3.1,0.1-4.3c0.2-4.5,1.3-8.4,3.3-11.7c2-3.3,4.8-5.8,8.5-7.6c3.6-1.8,8.1-2.7,13.3-2.7
			c5.1,0,9.5,0.9,13.2,2.7c3.6,1.8,6.5,4.3,8.5,7.6c2,3.3,3.1,7.2,3.3,11.7c0.1,1.2,0.2,2.7,0.2,4.3c0,1.7-0.1,3.1-0.2,4.4
			c-0.2,4.4-1.3,8.3-3.2,11.6c-1.9,3.3-4.7,5.9-8.3,7.7C604,119.5,599.5,120.4,594.2,120.4z M594.2,109.7c3.2,0,5.6-1,7.2-3
			c1.6-2,2.5-4.9,2.6-8.7c0.1-1,0.1-2.3,0.1-3.9c0-1.6,0-2.9-0.1-3.9c-0.1-3.8-1-6.7-2.6-8.7c-1.6-2-4-3-7.2-3c-3.2,0-5.6,1-7.3,3
			c-1.7,2-2.6,4.9-2.7,8.7c-0.1,1-0.1,2.3-0.1,3.9c0,1.6,0,2.9,0.1,3.9c0.1,3.8,1,6.7,2.7,8.7C588.6,108.7,591,109.7,594.2,109.7z"
			/>
		<path class="st0" d="M631.9,119.4c-0.7,0-1.2-0.2-1.7-0.7c-0.5-0.5-0.7-1-0.7-1.8V71.3c0-0.7,0.2-1.3,0.7-1.8
			c0.5-0.5,1-0.7,1.7-0.7h9.1c0.6,0,1.2,0.2,1.7,0.7c0.5,0.5,0.7,1,0.7,1.8v3.3c1.3-1.8,3.1-3.4,5.4-4.7c2.3-1.3,5.1-2,8.2-2
			c7.5-0.1,12.7,2.7,15.5,8.6c1.5-2.5,3.7-4.6,6.5-6.2s5.9-2.4,9.3-2.4c3.4,0,6.4,0.8,9.2,2.3c2.7,1.5,4.9,3.9,6.5,7
			c1.6,3.2,2.4,7.2,2.4,12.1V117c0,0.7-0.2,1.3-0.7,1.8c-0.5,0.5-1,0.7-1.7,0.7h-9.7c-0.7,0-1.2-0.2-1.7-0.7c-0.5-0.5-0.7-1-0.7-1.8
			V90c0-2.7-0.4-4.8-1.2-6.3c-0.8-1.5-1.8-2.6-3.1-3.3c-1.3-0.6-2.7-1-4.2-1c-1.4,0-2.7,0.3-3.9,1c-1.3,0.7-2.3,1.7-3.1,3.3
			c-0.8,1.5-1.2,3.6-1.2,6.3v27c0,0.7-0.2,1.3-0.7,1.8s-1,0.7-1.8,0.7H663c-0.7,0-1.3-0.2-1.8-0.7c-0.5-0.5-0.7-1-0.7-1.8V90
			c0-2.7-0.4-4.8-1.2-6.3c-0.8-1.5-1.8-2.6-3.1-3.3c-1.3-0.6-2.6-1-4.1-1c-1.4,0-2.7,0.3-4,1s-2.4,1.8-3.2,3.3
			c-0.8,1.5-1.2,3.5-1.2,6.1v27.1c0,0.7-0.2,1.3-0.7,1.8c-0.5,0.5-1,0.7-1.7,0.7H631.9z"/>
		<path class="st0" d="M733,120.4c-3.4,0-6.5-0.7-9.3-2c-2.7-1.3-4.9-3.1-6.5-5.4c-1.6-2.3-2.4-4.8-2.4-7.6c0-4.6,1.9-8.3,5.6-10.9
			c3.7-2.7,8.7-4.5,14.8-5.5l12.8-1.9v-1.7c0-2.5-0.6-4.5-1.8-5.9c-1.2-1.4-3.2-2-6.1-2c-2.1,0-3.9,0.4-5.2,1.3
			c-1.3,0.8-2.3,2-3,3.3c-0.5,0.8-1.3,1.3-2.2,1.3h-9.3c-0.7,0-1.3-0.2-1.7-0.6c-0.4-0.4-0.6-0.9-0.5-1.5c0-1.1,0.4-2.4,1.3-3.9
			c0.8-1.5,2.1-3,3.9-4.4c1.8-1.5,4-2.7,6.7-3.7s6.1-1.5,10-1.5c4.1,0,7.6,0.5,10.5,1.5s5.3,2.3,7,4.1s3.1,3.8,3.9,6.1
			c0.8,2.3,1.3,4.8,1.3,7.5v30.1c0,0.7-0.2,1.3-0.7,1.8c-0.5,0.5-1,0.7-1.8,0.7h-9.6c-0.7,0-1.2-0.2-1.7-0.7c-0.5-0.5-0.7-1-0.7-1.8
			v-3.7c-0.8,1.2-2,2.4-3.4,3.5c-1.4,1.1-3.1,1.9-5.1,2.6C738,120.1,735.7,120.4,733,120.4z M736.9,110.3c2.1,0,4.1-0.5,5.8-1.4
			s3-2.3,4-4.2c1-1.9,1.5-4.3,1.5-7.1v-1.7l-9.1,1.5c-3.5,0.6-6.1,1.5-7.7,2.6c-1.6,1.2-2.4,2.6-2.4,4.3c0,1.2,0.4,2.3,1.1,3.2
			c0.7,0.9,1.7,1.6,3,2C734.3,110,735.6,110.3,736.9,110.3z"/>
		<path class="st0" d="M798.6,119.4c-4,0-7.5-0.7-10.3-2c-2.9-1.3-5-3.4-6.5-6.2c-1.5-2.8-2.2-6.3-2.2-10.5V80.2h-7.7
			c-0.7,0-1.3-0.2-1.8-0.7s-0.7-1-0.7-1.8v-6.6c0-0.7,0.2-1.3,0.7-1.8c0.5-0.5,1-0.7,1.8-0.7h7.6v-16c0-0.7,0.2-1.3,0.7-1.8
			c0.5-0.5,1.1-0.7,1.7-0.7h9.6c0.7,0,1.3,0.2,1.8,0.7c0.5,0.5,0.7,1,0.7,1.8v16.1h12.2c0.6,0,1.2,0.2,1.7,0.7
			c0.5,0.5,0.7,1,0.7,1.8v6.6c0,0.7-0.2,1.3-0.7,1.8c-0.5,0.5-1,0.7-1.7,0.7H794v19.3c0,2.5,0.4,4.4,1.3,5.8
			c0.9,1.4,2.4,2.1,4.6,2.1h7.1c0.6,0,1.2,0.2,1.7,0.7c0.5,0.5,0.7,1,0.7,1.7v7.2c0,0.7-0.2,1.3-0.7,1.8c-0.5,0.5-1,0.7-1.7,0.7
			h-8.4V119.4z"/>
		<path class="st0" d="M840.4,120.4c-4.7,0-8.9-0.9-12.5-2.6c-3.6-1.8-6.5-4.3-8.5-7.7c-2.1-3.3-3.2-7.4-3.4-12
			c-0.1-1-0.1-2.4-0.1-3.9c0-1.6,0-2.9,0.1-3.9c0.2-4.7,1.3-8.8,3.4-12.1c2-3.3,4.9-5.9,8.5-7.7c3.6-1.8,7.8-2.6,12.6-2.6
			c4.4,0,8.1,0.6,11.1,1.8c3.1,1.2,5.6,2.7,7.5,4.5c2,1.8,3.4,3.7,4.3,5.7c0.9,2,1.4,3.7,1.5,5.2c0.1,0.7-0.1,1.2-0.6,1.7
			c-0.5,0.5-1.1,0.7-1.7,0.7h-10.4c-0.7,0-1.2-0.2-1.5-0.5c-0.4-0.4-0.7-0.9-1-1.5c-0.9-2.3-2.1-3.9-3.5-4.9c-1.4-1-3.2-1.5-5.4-1.5
			c-2.9,0-5.2,0.9-6.9,2.8s-2.6,4.8-2.7,8.8c-0.1,2.5-0.1,4.8,0,6.9c0.2,4,1.1,7,2.8,8.8c1.7,1.8,3.9,2.7,6.9,2.7
			c2.3,0,4.1-0.5,5.5-1.5c1.4-1,2.5-2.6,3.4-4.9c0.3-0.6,0.6-1.2,1-1.5c0.4-0.4,0.9-0.5,1.6-0.5h10.4c0.6,0,1.2,0.2,1.7,0.7
			c0.5,0.5,0.7,1.1,0.6,1.7c-0.1,1.1-0.4,2.4-0.9,3.9c-0.6,1.5-1.4,3-2.6,4.6c-1.2,1.6-2.7,3-4.6,4.3c-1.9,1.3-4.2,2.4-6.9,3.2
			C847.1,120,844,120.4,840.4,120.4z"/>
		<path class="st0" d="M876.8,119.4c-0.7,0-1.3-0.2-1.8-0.7c-0.5-0.5-0.7-1-0.7-1.8V52.7c0-0.7,0.2-1.3,0.7-1.8
			c0.5-0.5,1-0.7,1.8-0.7h10.5c0.6,0,1.2,0.2,1.7,0.7c0.5,0.5,0.7,1,0.7,1.8v21.9c1.8-2.1,3.9-3.7,6.4-5c2.5-1.2,5.6-1.9,9.2-1.9
			c3.8,0,7.2,0.9,10.2,2.6c3,1.7,5.3,4.2,7,7.5c1.7,3.3,2.5,7.3,2.5,11.9v27.2c0,0.7-0.2,1.3-0.7,1.8c-0.5,0.5-1,0.7-1.8,0.7h-10.6
			c-0.7,0-1.2-0.2-1.7-0.7c-0.5-0.5-0.7-1-0.7-1.8V90.4c0-3.4-0.8-6.1-2.5-8c-1.7-1.9-4.1-2.9-7.2-2.9c-3.1,0-5.5,1-7.4,2.9
			c-1.9,1.9-2.8,4.6-2.8,8V117c0,0.7-0.2,1.3-0.7,1.8s-1,0.7-1.7,0.7L876.8,119.4L876.8,119.4z"/>
		<path class="st1" d="M364.5,213.2c-3.1,0-6-0.7-8.6-1.9c-2.6-1.3-4.8-3-6.4-5.2c-1.6-2.2-2.4-4.6-2.4-7.4c0-4.4,1.8-8,5.4-10.6
			c3.6-2.7,8.2-4.4,13.9-5.2l15.4-2.1v-3.4c0-3.4-1.1-6.2-3.2-8.1c-2.1-2-5.5-3-10.1-3c-3.4,0-6.1,0.7-8.2,2s-3.5,3.1-4.3,5.2
			c-0.3,1-0.9,1.5-1.9,1.5h-1.6c-0.8,0-1.3-0.2-1.7-0.6c-0.3-0.4-0.5-0.9-0.5-1.5c0-0.9,0.3-2,1-3.4c0.7-1.4,1.7-2.7,3.2-4
			c1.4-1.3,3.3-2.5,5.6-3.4c2.3-0.9,5-1.4,8.3-1.4c3.8,0,7,0.5,9.5,1.6c2.5,1,4.5,2.4,5.9,4c1.4,1.7,2.4,3.5,3,5.5
			c0.6,2,0.9,4,0.9,5.9v32.5c0,0.7-0.2,1.2-0.6,1.6c-0.4,0.4-0.9,0.6-1.6,0.6h-1.7c-0.7,0-1.2-0.2-1.6-0.6c-0.4-0.4-0.6-0.9-0.6-1.6
			v-4.6c-0.8,1.2-1.9,2.3-3.3,3.5c-1.4,1.2-3.3,2.2-5.5,3C370.7,212.8,367.9,213.2,364.5,213.2z M365.4,207.6c3,0,5.7-0.6,8.2-2
			c2.5-1.3,4.4-3.3,5.9-6c1.5-2.7,2.2-6.1,2.2-10.2v-3.3l-12.6,1.8c-5.3,0.7-9.4,2-12.1,3.7c-2.7,1.8-4.1,4-4.1,6.6
			c0,2.1,0.6,3.9,1.9,5.3c1.2,1.4,2.8,2.4,4.7,3.1C361.5,207.2,363.4,207.6,365.4,207.6z"/>
		<path class="st1" d="M422.3,213.2c-4.6,0-8.4-0.9-11.6-2.7c-3.2-1.8-5.6-4.4-7.3-7.8c-1.7-3.4-2.6-7.4-2.7-12
			c-0.1-1-0.1-2.3-0.1-3.9c0-1.6,0-2.9,0.1-3.9c0.1-4.7,1-8.7,2.7-12s4.1-5.9,7.3-7.7c3.2-1.8,7.1-2.7,11.6-2.7
			c3.4,0,6.4,0.5,8.9,1.4c2.5,0.9,4.6,2.2,6.2,3.7c1.6,1.5,2.9,3.2,3.7,5c0.8,1.8,1.3,3.6,1.4,5.4c0.1,0.7-0.1,1.2-0.6,1.6
			c-0.5,0.4-1,0.6-1.6,0.6h-1.4c-0.7,0-1.1-0.1-1.4-0.4c-0.3-0.3-0.6-0.8-0.9-1.6c-1.4-3.7-3.2-6.3-5.6-7.8s-5.3-2.2-8.7-2.2
			c-4.4,0-8.1,1.3-11,4c-2.9,2.7-4.4,7.1-4.6,13.2c-0.1,2.3-0.1,4.6,0,6.8c0.2,6.1,1.7,10.5,4.6,13.2c2.9,2.7,6.5,4,11,4
			c3.4,0,6.4-0.7,8.7-2.2c2.4-1.5,4.2-4,5.6-7.8c0.3-0.8,0.6-1.3,0.9-1.6c0.3-0.3,0.8-0.4,1.4-0.4h1.4c0.6,0,1.1,0.2,1.6,0.6
			c0.5,0.4,0.6,0.9,0.6,1.6c-0.1,1.4-0.4,2.9-0.9,4.3c-0.5,1.4-1.3,2.8-2.4,4.2c-1.1,1.4-2.4,2.6-3.9,3.6c-1.6,1-3.4,1.9-5.6,2.5
			C427.5,212.9,425,213.2,422.3,213.2z"/>
		<path class="st1" d="M468.9,213.2c-3.1,0-6-0.7-8.6-1.9c-2.6-1.3-4.8-3-6.4-5.2c-1.6-2.2-2.4-4.6-2.4-7.4c0-4.4,1.8-8,5.4-10.6
			c3.6-2.7,8.2-4.4,13.9-5.2l15.4-2.1v-3.4c0-3.4-1.1-6.2-3.2-8.1c-2.1-2-5.5-3-10.1-3c-3.4,0-6.1,0.7-8.2,2s-3.5,3.1-4.3,5.2
			c-0.3,1-0.9,1.5-1.9,1.5h-1.6c-0.8,0-1.3-0.2-1.7-0.6c-0.3-0.4-0.5-0.9-0.5-1.5c0-0.9,0.3-2,1-3.4c0.7-1.4,1.7-2.7,3.2-4
			c1.4-1.3,3.3-2.5,5.6-3.4c2.3-0.9,5-1.4,8.3-1.4c3.8,0,7,0.5,9.5,1.6c2.5,1,4.5,2.4,5.9,4c1.4,1.7,2.4,3.5,3,5.5
			c0.6,2,0.9,4,0.9,5.9v32.5c0,0.7-0.2,1.2-0.6,1.6c-0.4,0.4-0.9,0.6-1.6,0.6h-1.7c-0.7,0-1.2-0.2-1.6-0.6c-0.4-0.4-0.6-0.9-0.6-1.6
			v-4.6c-0.8,1.2-1.9,2.3-3.3,3.5c-1.4,1.2-3.3,2.2-5.5,3C475.1,212.8,472.3,213.2,468.9,213.2z M469.9,207.6c3,0,5.7-0.6,8.2-2
			c2.5-1.3,4.4-3.3,5.9-6c1.5-2.7,2.2-6.1,2.2-10.2v-3.3l-12.6,1.8c-5.3,0.7-9.4,2-12.1,3.7c-2.7,1.8-4.1,4-4.1,6.6
			c0,2.1,0.6,3.9,1.9,5.3c1.2,1.4,2.8,2.4,4.7,3.1C465.9,207.2,467.9,207.6,469.9,207.6z"/>
		<path class="st1" d="M525.8,213.2c-3.8,0-7-0.7-9.6-2c-2.6-1.4-4.8-3.2-6.4-5.5c-1.6-2.3-2.8-4.8-3.6-7.6
			c-0.7-2.8-1.2-5.6-1.3-8.5c-0.1-1-0.1-1.9-0.1-2.7s0-1.8,0.1-2.7c0.1-2.9,0.6-5.7,1.3-8.5c0.7-2.8,1.9-5.3,3.6-7.6
			c1.6-2.3,3.8-4.1,6.4-5.5c2.6-1.4,5.8-2,9.6-2c4,0,7.4,0.7,10,2.2c2.6,1.5,4.8,3.3,6.4,5.5v-23.1c0-0.6,0.2-1.2,0.6-1.6
			c0.4-0.4,0.9-0.6,1.6-0.6h1.7c0.6,0,1.2,0.2,1.6,0.6c0.4,0.4,0.6,0.9,0.6,1.6v64.8c0,0.7-0.2,1.2-0.6,1.6
			c-0.4,0.4-0.9,0.6-1.6,0.6h-1.7c-0.7,0-1.2-0.2-1.6-0.6c-0.4-0.4-0.6-0.9-0.6-1.6v-4.6c-1.6,2.2-3.8,4-6.4,5.5
			C533.2,212.5,529.9,213.2,525.8,213.2z M526.4,207.6c3.7,0,6.7-0.9,9-2.6c2.3-1.8,4-3.9,5.1-6.6c1.1-2.6,1.7-5.3,1.8-7.9
			c0.1-1,0.1-2.2,0.1-3.8c0-1.6,0-2.8-0.1-3.8c-0.1-2.6-0.7-5.2-1.8-7.7s-2.8-4.6-5.1-6.3c-2.3-1.7-5.2-2.5-8.9-2.5
			c-3.8,0-6.8,0.8-9,2.5c-2.2,1.7-3.9,3.9-4.8,6.6c-1,2.7-1.5,5.7-1.7,8.8c-0.1,1.8-0.1,3.6,0,5.5c0.1,3.1,0.7,6,1.7,8.8
			c1,2.7,2.6,4.9,4.8,6.6C519.7,206.7,522.7,207.6,526.4,207.6z"/>
		<path class="st1" d="M582.8,213.2c-6.3,0-11.3-2.1-15-6.2s-5.8-9.5-6.3-16.2c-0.1-1-0.1-2.3-0.1-3.9c0-1.6,0-2.9,0.1-3.9
			c0.3-4.4,1.4-8.3,3.1-11.7c1.8-3.4,4.2-6,7.3-7.9s6.7-2.8,11-2.8c4.5,0,8.4,1,11.6,3s5.6,4.9,7.4,8.7c1.7,3.8,2.6,8.3,2.6,13.5
			v1.5c0,0.7-0.2,1.2-0.6,1.6c-0.4,0.4-1,0.6-1.6,0.6h-34.7c0,0.5,0,0.8,0,1c0.1,2.9,0.8,5.7,2,8.3c1.2,2.6,3,4.8,5.3,6.4
			c2.3,1.7,5,2.5,8.1,2.5c2.8,0,5.1-0.4,7-1.3c1.9-0.8,3.3-1.8,4.4-2.8c1.1-1,1.8-1.8,2.1-2.3c0.6-0.8,1-1.3,1.4-1.5
			c0.3-0.2,0.8-0.2,1.6-0.2h1.6c0.6,0,1.1,0.2,1.5,0.5c0.4,0.4,0.6,0.8,0.5,1.4c-0.1,0.9-0.6,2-1.5,3.4c-0.9,1.3-2.3,2.6-4,3.9
			c-1.7,1.3-3.8,2.4-6.3,3.2C588.6,212.8,585.8,213.2,582.8,213.2z M567.4,183.9h31v-0.4c0-3.2-0.6-6.2-1.9-8.8
			c-1.2-2.6-3-4.7-5.4-6.2c-2.3-1.5-5.1-2.3-8.4-2.3c-3.3,0-6,0.8-8.3,2.3c-2.3,1.5-4.1,3.6-5.3,6.2c-1.2,2.6-1.8,5.5-1.8,8.8
			L567.4,183.9L567.4,183.9z"/>
		<path class="st1" d="M619.3,212.3c-0.7,0-1.2-0.2-1.6-0.6c-0.4-0.4-0.6-0.9-0.6-1.6v-46.4c0-0.6,0.2-1.2,0.6-1.6
			c0.4-0.4,0.9-0.6,1.6-0.6h1.7c0.6,0,1.2,0.2,1.6,0.6c0.4,0.4,0.6,0.9,0.6,1.6v3.4c1.6-2.1,3.6-3.7,5.8-4.8s5-1.7,8.1-1.7
			c7.3,0,12.5,3.1,15.6,9.2c1.5-2.8,3.7-5,6.6-6.7c2.9-1.7,6.2-2.5,10-2.5c3.4,0,6.5,0.8,9.3,2.4s4.9,3.9,6.5,7.1
			c1.6,3.1,2.4,7,2.4,11.7v28.4c0,0.7-0.2,1.2-0.6,1.6c-0.4,0.4-0.9,0.6-1.6,0.6h-1.7c-0.7,0-1.2-0.2-1.6-0.6
			c-0.4-0.4-0.6-0.9-0.6-1.6v-27.4c0-4.3-0.6-7.6-1.9-10c-1.2-2.4-2.9-4-4.9-5c-2-1-4.2-1.5-6.5-1.5c-2,0-3.9,0.5-5.9,1.5
			c-2,1-3.7,2.6-5,5s-2,5.7-2,10v27.4c0,0.7-0.2,1.2-0.6,1.6c-0.4,0.4-0.9,0.6-1.6,0.6h-1.7c-0.7,0-1.2-0.2-1.6-0.6
			c-0.4-0.4-0.6-0.9-0.6-1.6v-27.4c0-4.3-0.7-7.6-2-10s-3-4-5-5s-4.1-1.5-6.3-1.5c-2,0-3.9,0.5-5.9,1.5s-3.7,2.6-5,5s-2,5.7-2,9.9
			v27.5c0,0.7-0.2,1.2-0.6,1.6s-0.9,0.6-1.6,0.6L619.3,212.3L619.3,212.3z"/>
		<path class="st1" d="M709.8,230.8c-0.5,0-1-0.2-1.4-0.6c-0.4-0.4-0.6-0.8-0.6-1.4c0-0.3,0-0.5,0.1-0.8s0.2-0.7,0.4-1.1l7.7-17.6
			l-18.6-43.9c-0.4-1-0.6-1.6-0.6-2c0-0.5,0.2-1,0.6-1.4c0.4-0.4,0.8-0.6,1.4-0.6h2c0.6,0,1.2,0.1,1.5,0.4c0.4,0.3,0.6,0.6,0.7,1
			l16.4,38.6l16.8-38.6c0.2-0.4,0.5-0.7,0.8-1c0.3-0.3,0.8-0.4,1.5-0.4h2c0.5,0,1,0.2,1.4,0.6s0.6,0.8,0.6,1.4c0,0.3-0.2,1-0.6,2
			L714,229.3c-0.2,0.4-0.5,0.7-0.8,1c-0.3,0.3-0.8,0.4-1.5,0.4L709.8,230.8L709.8,230.8z"/>
	</g>
</g>
</svg>
