<?xml version="1.0" encoding="utf-8"?>
<!-- Generator: Adobe Illustrator 26.5.0, SVG Export Plug-In . SVG Version: 6.00 Build 0)  -->
<svg version="1.1" id="Layer_1" xmlns="http://www.w3.org/2000/svg" xmlns:xlink="http://www.w3.org/1999/xlink" x="0px" y="0px"
	 viewBox="0 0 1024 186.8" style="enable-background:new 0 0 1024 186.8;" xml:space="preserve">
<style type="text/css">
	.st0{fill:#FFFFFF;}
</style>
<g>
	<g>
		<g>
			<path class="st0" d="M94.3,132.2c1.1,3.9-0.8,8.1-4.5,9.8c-3.3,1.5-7,0.7-9.4-1.7l-8.5,3.2c-2,0.7-3.5,2.5-3.9,4.6l0,0
				c-0.4,2.1,0.4,4.3,2.1,5.7l7,5.8c3-1.5,6.8-1,9.4,1.5c2.8,2.7,3.2,7.7,0.9,10.8c-2.8,3.9-8.4,4.6-12,1.5
				c-2.6-2.1-3.5-5.5-2.7-8.6c0,0,0,0,0,0l-7-5.8c-1.7-1.4-3.9-1.8-6-1h0c-2,0.7-3.5,2.5-3.9,4.6l-1.5,8.9c2.8,1.9,4.3,5.4,3.4,8.9
				c-1,3.9-4.8,6.6-8.9,6.2c-4.8-0.5-8.2-4.9-7.4-9.7c0.6-3.3,3-5.8,6-6.6c0,0,0,0,0,0l1.5-9c0.4-2.1-0.4-4.3-2.1-5.7l0,0
				c-1.7-1.4-3.9-1.8-6-1l-8.4,3.1c-0.3,3.3-2.5,6.4-6,7.4c-3.9,1.1-8.2-0.9-9.8-4.6c-2-4.4,0.2-9.5,4.7-11.2
				c3.1-1.2,6.5-0.3,8.8,1.9c0,0,0,0,0,0l8.3-3.1c2.1-0.8,3.6-2.6,4-4.8l0,0c0.3-2-0.3-4.1-1.8-5.5c-12.6-12.1-19.9-29.2-19.8-46.7
				c0-12.4,3.5-24.4,10.1-34.8c6.4-10.1,15.5-18.2,26.3-23.5c2.7-1.3,5.6-2.5,8.4-3.4c0.2-0.1,0.5-0.1,0.7-0.2
				c0.6-3,2.7-5.5,5.9-6.4c3.9-1.1,8.2,0.8,9.9,4.6c2,4.4-0.2,9.5-4.7,11.2c-3.4,1.3-7.2,0.1-9.4-2.6c0,0,0,0,0,0
				c-2.6,0.8-5.3,1.9-7.8,3.1c-20.1,9.8-32.5,29.7-32.5,52.1c0,15.3,6.2,30.1,16.9,40.9c1.6,1.6,4,2.1,6.2,1.3h0
				c2-0.7,3.4-2.4,3.7-4.5l1.5-9c-2.8-1.9-4.3-5.4-3.3-8.9c1-3.9,4.8-6.6,8.9-6.2c4.8,0.5,8.2,4.9,7.4,9.7c-0.6,3.3-3,5.8-6.1,6.6
				l-1.5,8.8c-0.4,2.1,0.4,4.3,2.1,5.7l0,0c1.7,1.4,3.9,1.8,6,1l8.5-3.2c0.2-3.1,2.3-6,5.4-7.2C87.9,125.1,92.9,127.5,94.3,132.2z"
				/>
			<path class="st0" d="M164.4,36.9c-3.3,1.5-7,0.7-9.4-1.7l-8.3,3.1c-2.1,0.8-3.6,2.6-4,4.8v0c-0.3,2,0.3,4.1,1.8,5.5
				c6.1,5.8,10.9,12.7,14.3,20.4c3.7,8.3,5.5,17.1,5.5,26.3c0,12.4-3.5,24.4-10.1,34.8c-6.4,10.1-15.5,18.2-26.3,23.5
				c-2.7,1.3-5.6,2.5-8.4,3.4c-0.2,0.1-0.5,0.1-0.7,0.2c-0.6,3-2.7,5.5-5.9,6.4c-3.9,1.1-8.2-0.8-9.9-4.6c-2-4.4,0.2-9.5,4.7-11.2
				c3.4-1.3,7.2-0.1,9.4,2.6c0,0,0,0,0,0c2.6-0.8,5.3-1.9,7.8-3.1c20.1-9.8,32.5-29.7,32.5-52.1c0-15.3-6.2-30.1-16.9-40.9
				c-1.6-1.6-4-2.1-6.2-1.3h0c-2,0.7-3.4,2.4-3.7,4.5l-1.5,9c2.8,1.9,4.3,5.4,3.3,8.9c-1,3.9-4.8,6.6-8.9,6.2
				c-4.8-0.5-8.2-4.9-7.4-9.7c0.6-3.3,3-5.8,6.1-6.6l1.5-8.8c0.4-2.1-0.4-4.3-2.1-5.7l0,0c-1.7-1.4-3.9-1.8-6-1l-8.5,3.2
				c-0.3,3.3-2.5,6.4-6,7.4c-3.9,1.1-8.2-0.9-9.8-4.6c-2-4.4,0.2-9.5,4.7-11.2c3.1-1.2,6.5-0.3,8.8,1.9l8.5-3.2
				c2-0.7,3.5-2.5,3.9-4.6v0c0.4-2.1-0.4-4.3-2.1-5.7l-7-5.8c-3,1.5-6.8,1-9.4-1.5c-2.9-2.8-3.3-7.5-0.9-10.8
				c2.8-3.9,8.4-4.6,12-1.5c2.6,2.1,3.5,5.5,2.7,8.6l7,5.8c1.7,1.4,3.9,1.8,6,1l0,0c2-0.7,3.5-2.5,3.9-4.6l1.5-8.9
				c-2.8-1.9-4.3-5.4-3.4-8.9c1-3.9,4.8-6.6,8.9-6.2c4.8,0.5,8.2,4.9,7.4,9.7c-0.6,3.3-3,5.8-6,6.6l-1.5,9c-0.4,2.1,0.4,4.3,2.1,5.7
				l0,0c1.7,1.4,3.9,1.8,6,1l8.4-3.1c0.2-3.1,2.3-6,5.4-7.2c4.5-1.7,9.5,0.8,10.9,5.5C170,31,168.1,35.2,164.4,36.9z"/>
		</g>
	</g>
	<g>
		<g>
			<path class="st0" d="M215.7,132.4c-0.9,0-1.7-0.3-2.3-0.9c-0.6-0.6-0.9-1.4-0.9-2.4V65.8c0-1,0.3-1.8,0.9-2.4
				c0.6-0.6,1.4-0.9,2.3-0.9h13.2c1,0,1.8,0.3,2.4,0.9c0.6,0.6,0.9,1.4,0.9,2.4V71c2.3-2.9,5.3-5.2,9-7.1c3.7-1.9,8.2-2.8,13.5-2.8
				c5.3,0,9.9,1.2,13.9,3.6c4,2.4,7.1,5.8,9.4,10.4c2.3,4.5,3.4,10,3.4,16.5V129c0,1-0.3,1.8-1,2.4c-0.7,0.6-1.5,0.9-2.4,0.9h-14.3
				c-1,0-1.8-0.3-2.4-0.9c-0.6-0.6-0.9-1.4-0.9-2.4V92.3c0-4.8-1.1-8.5-3.4-11.1c-2.3-2.6-5.6-4-10-4c-4.2,0-7.6,1.3-10.1,4
				c-2.5,2.6-3.8,6.3-3.8,11.1V129c0,1-0.3,1.8-0.9,2.4c-0.6,0.6-1.4,0.9-2.3,0.9H215.7z"/>
			<path class="st0" d="M328.9,133.8c-10.3,0-18.5-2.9-24.6-8.6c-6.1-5.7-9.3-14.1-9.6-25c0-0.7,0-1.7,0-2.9c0-1.2,0-2.2,0-2.9
				c0.4-6.9,1.9-12.9,4.7-17.8c2.8-5,6.7-8.8,11.7-11.4c5-2.6,10.9-4,17.6-4c7.5,0,13.8,1.5,18.9,4.6c5.1,3.1,8.9,7.3,11.4,12.7
				c2.6,5.3,3.8,11.5,3.8,18.4v3.1c0,0.9-0.3,1.7-1,2.3c-0.7,0.6-1.5,0.9-2.4,0.9h-44c0,0.1,0,0.2,0,0.5c0,0.2,0,0.4,0,0.6
				c0.1,2.9,0.6,5.5,1.7,7.9c1,2.4,2.5,4.3,4.4,5.7c1.9,1.4,4.2,2.2,6.9,2.2c2.2,0,4.1-0.3,5.5-0.9c1.4-0.6,2.6-1.4,3.6-2.3
				c0.9-0.9,1.6-1.7,2.1-2.3c0.8-0.9,1.5-1.5,2-1.7c0.5-0.2,1.3-0.3,2.4-0.3h14c0.9,0,1.6,0.2,2.2,0.7c0.6,0.5,0.8,1.2,0.7,2.1
				c-0.1,1.4-0.8,3.2-2.2,5.3c-1.4,2.1-3.4,4.2-6.1,6.2c-2.7,2-6,3.7-10,5C338.7,133.1,334.1,133.8,328.9,133.8z M315.5,90.8h26.4
				v-0.3c0-3.2-0.5-6-1.5-8.4c-1-2.4-2.5-4.2-4.5-5.6c-2-1.3-4.4-2-7.1-2c-2.8,0-5.2,0.7-7.1,2c-2,1.3-3.5,3.2-4.5,5.6
				c-1,2.4-1.5,5.2-1.5,8.4V90.8z"/>
			<path class="st0" d="M402.1,133.8c-5.2,0-9.8-1.2-13.8-3.6c-4-2.4-7.1-5.8-9.3-10.4c-2.2-4.5-3.3-10-3.3-16.5V65.8
				c0-1,0.3-1.8,0.9-2.4c0.6-0.6,1.4-0.9,2.3-0.9h14.3c1,0,1.8,0.3,2.4,0.9c0.6,0.6,0.9,1.4,0.9,2.4v36.7c0,10,4.4,15.1,13.2,15.1
				c4.2,0,7.6-1.3,10-4c2.5-2.6,3.7-6.3,3.7-11.1V65.8c0-1,0.3-1.8,0.9-2.4c0.6-0.6,1.4-0.9,2.4-0.9h14.3c0.9,0,1.7,0.3,2.3,0.9
				c0.6,0.6,0.9,1.4,0.9,2.4V129c0,1-0.3,1.8-0.9,2.4c-0.6,0.6-1.4,0.9-2.3,0.9h-13.2c-1,0-1.8-0.3-2.4-0.9
				c-0.6-0.6-0.9-1.4-0.9-2.4v-5.2c-2.3,3.2-5.3,5.7-9,7.4C411.8,132.9,407.4,133.8,402.1,133.8z"/>
			<path class="st0" d="M464.5,132.4c-0.9,0-1.7-0.3-2.3-0.9c-0.6-0.6-0.9-1.4-0.9-2.4V65.8c0-0.9,0.3-1.7,0.9-2.4
				c0.6-0.7,1.4-1,2.3-1h13.2c0.9,0,1.7,0.3,2.4,1c0.7,0.7,1,1.5,1,2.4v5.4c2.2-2.8,5-4.9,8.3-6.5c3.3-1.5,7.1-2.3,11.4-2.3h5.8
				c0.9,0,1.7,0.3,2.3,0.9c0.6,0.6,0.9,1.4,0.9,2.4v11.6c0,1-0.3,1.8-0.9,2.4c-0.6,0.6-1.4,0.9-2.3,0.9h-11.8c-3.9,0-7,1.1-9.3,3.3
				c-2.2,2.2-3.4,5.3-3.4,9.4V129c0,1-0.3,1.8-0.9,2.4c-0.6,0.6-1.4,0.9-2.4,0.9H464.5z"/>
			<path class="st0" d="M551.1,133.8c-7.4,0-13.7-1.2-18.7-3.7c-5-2.5-8.9-6-11.5-10.6c-2.6-4.6-4.1-9.9-4.4-16
				c-0.1-1.8-0.1-3.8-0.1-6.1c0-2.3,0-4.3,0.1-6c0.3-6.2,1.8-11.6,4.6-16.1c2.8-4.5,6.7-8,11.7-10.5c5-2.5,11.1-3.7,18.3-3.7
				c7.1,0,13.1,1.2,18.2,3.7c5,2.5,8.9,6,11.7,10.5c2.8,4.5,4.3,9.9,4.6,16.1c0.2,1.7,0.3,3.7,0.3,6c0,2.3-0.1,4.3-0.3,6.1
				c-0.3,6.1-1.7,11.4-4.4,16c-2.6,4.6-6.5,8.1-11.5,10.6C564.6,132.5,558.4,133.8,551.1,133.8z M551.1,119c4.4,0,7.7-1.4,10-4.1
				c2.2-2.7,3.5-6.8,3.6-12c0.1-1.3,0.1-3.1,0.1-5.4c0-2.2,0-4-0.1-5.4c-0.2-5.2-1.4-9.2-3.6-12c-2.2-2.8-5.6-4.2-10-4.2
				c-4.4,0-7.7,1.4-10,4.2c-2.3,2.8-3.5,6.8-3.7,12c-0.1,1.3-0.1,3.1-0.1,5.4c0,2.2,0,4,0.1,5.4c0.2,5.3,1.4,9.3,3.7,12
				C543.3,117.6,546.7,119,551.1,119z"/>
			<path class="st0" d="M603.1,132.4c-0.9,0-1.7-0.3-2.3-0.9c-0.6-0.6-0.9-1.4-0.9-2.4V65.8c0-1,0.3-1.8,0.9-2.4
				c0.6-0.6,1.4-0.9,2.3-0.9h12.5c0.9,0,1.7,0.3,2.4,0.9c0.7,0.6,1,1.4,1,2.4v4.6c1.8-2.5,4.3-4.7,7.5-6.5c3.2-1.8,7-2.7,11.4-2.8
				c10.4-0.2,17.5,3.8,21.4,11.8c2.1-3.5,5-6.3,9-8.5c3.9-2.2,8.2-3.3,12.9-3.3c4.7,0,8.9,1.1,12.7,3.2c3.8,2.1,6.8,5.3,9,9.7
				c2.2,4.4,3.3,9.9,3.3,16.8V129c0,1-0.3,1.8-0.9,2.4c-0.6,0.6-1.4,0.9-2.3,0.9h-13.3c-0.9,0-1.7-0.3-2.3-0.9
				c-0.6-0.6-0.9-1.4-0.9-2.4V91.8c0-3.7-0.5-6.6-1.6-8.7c-1.1-2.1-2.5-3.6-4.2-4.5c-1.7-0.9-3.7-1.3-5.9-1.3
				c-1.9,0-3.7,0.4-5.5,1.3c-1.7,0.9-3.2,2.4-4.3,4.5c-1.1,2.1-1.7,5-1.7,8.7V129c0,1-0.3,1.8-0.9,2.4c-0.6,0.6-1.4,0.9-2.4,0.9
				h-13.2c-1,0-1.8-0.3-2.4-0.9c-0.6-0.6-0.9-1.4-0.9-2.4V91.8c0-3.7-0.5-6.6-1.6-8.7c-1.1-2.1-2.5-3.6-4.2-4.5
				c-1.7-0.9-3.7-1.3-5.7-1.3c-1.9,0-3.7,0.5-5.5,1.4c-1.8,0.9-3.3,2.4-4.4,4.5c-1.1,2.1-1.7,4.9-1.7,8.5V129c0,1-0.3,1.8-0.9,2.4
				c-0.6,0.6-1.4,0.9-2.3,0.9H603.1z"/>
			<path class="st0" d="M742.8,133.8c-4.8,0-9-0.9-12.8-2.8c-3.8-1.8-6.8-4.3-9-7.5c-2.2-3.1-3.4-6.6-3.4-10.5
				c0-6.4,2.6-11.4,7.7-15.1c5.2-3.7,12-6.2,20.4-7.5l17.6-2.6v-2.4c0-3.5-0.8-6.2-2.4-8.1c-1.6-1.9-4.4-2.8-8.5-2.8
				c-3,0-5.3,0.6-7.1,1.7c-1.8,1.2-3.2,2.7-4.2,4.6c-0.7,1.2-1.7,1.7-3.1,1.7h-12.8c-1,0-1.7-0.3-2.3-0.9c-0.5-0.6-0.8-1.3-0.7-2.1
				c0-1.5,0.6-3.3,1.7-5.4c1.2-2.1,3-4.1,5.4-6.1c2.4-2,5.5-3.7,9.3-5c3.8-1.3,8.4-2,13.9-2c5.7,0,10.5,0.7,14.5,2
				c4,1.3,7.3,3.2,9.7,5.7s4.2,5.2,5.4,8.4c1.2,3.2,1.7,6.6,1.7,10.3V129c0,1-0.3,1.8-0.9,2.4c-0.6,0.6-1.4,0.9-2.4,0.9h-13.2
				c-0.9,0-1.7-0.3-2.3-0.9c-0.6-0.6-0.9-1.4-0.9-2.4v-5c-1.2,1.7-2.7,3.3-4.7,4.8c-2,1.5-4.3,2.7-7.1,3.6
				C749.7,133.3,746.5,133.8,742.8,133.8z M748.2,119.8c3,0,5.6-0.6,7.9-1.9c2.3-1.3,4.2-3.2,5.5-5.8c1.3-2.6,2-5.9,2-9.8V100
				l-12.5,2c-4.8,0.8-8.4,2-10.6,3.6c-2.2,1.6-3.4,3.6-3.4,5.9c0,1.7,0.5,3.2,1.5,4.4c1,1.3,2.4,2.2,4.1,2.8
				C744.5,119.4,746.3,119.8,748.2,119.8z"/>
			<path class="st0" d="M833.4,132.4c-5.6,0-10.3-0.9-14.3-2.8c-3.9-1.8-6.9-4.7-8.9-8.5c-2-3.9-3-8.7-3-14.5V78.3h-10.5
				c-1,0-1.8-0.3-2.4-0.9c-0.6-0.6-0.9-1.4-0.9-2.4v-9.2c0-1,0.3-1.8,0.9-2.4c0.6-0.6,1.4-0.9,2.4-0.9h10.5V40.2c0-1,0.3-1.8,1-2.4
				c0.7-0.6,1.5-0.9,2.4-0.9h13.2c1,0,1.8,0.3,2.4,0.9c0.6,0.6,0.9,1.4,0.9,2.4v22.2h16.8c0.9,0,1.7,0.3,2.3,0.9
				c0.6,0.6,0.9,1.4,0.9,2.4v9.2c0,1-0.3,1.8-0.9,2.4c-0.6,0.6-1.4,0.9-2.3,0.9h-16.8V105c0,3.4,0.6,6.1,1.8,8
				c1.2,1.9,3.3,2.9,6.4,2.9h9.8c0.9,0,1.7,0.3,2.3,0.9c0.6,0.6,0.9,1.4,0.9,2.3v10c0,1-0.3,1.8-0.9,2.4c-0.6,0.6-1.4,0.9-2.3,0.9
				H833.4z"/>
			<path class="st0" d="M891.1,133.8c-6.6,0-12.3-1.2-17.3-3.6c-5-2.4-8.9-5.9-11.8-10.6c-2.9-4.6-4.4-10.2-4.7-16.6
				c-0.1-1.4-0.1-3.3-0.1-5.5c0-2.2,0-4,0.1-5.5c0.3-6.5,1.8-12.1,4.6-16.8c2.8-4.6,6.7-8.1,11.8-10.6c5-2.4,10.8-3.6,17.4-3.6
				c6,0,11.1,0.8,15.3,2.5c4.2,1.7,7.7,3.7,10.4,6.3c2.7,2.5,4.7,5.1,6,7.9c1.3,2.7,2,5.1,2.1,7.2c0.1,0.9-0.2,1.7-0.9,2.4
				c-0.7,0.7-1.5,1-2.4,1h-14.4c-0.9,0-1.6-0.2-2.1-0.7c-0.5-0.5-1-1.2-1.4-2.1c-1.3-3.1-2.9-5.4-4.8-6.7c-2-1.3-4.4-2-7.4-2
				c-4,0-7.2,1.3-9.6,3.9c-2.3,2.6-3.6,6.6-3.8,12.1c-0.1,3.5-0.1,6.7,0,9.6c0.3,5.6,1.5,9.6,3.8,12.1c2.3,2.5,5.5,3.8,9.5,3.8
				c3.1,0,5.7-0.7,7.5-2c1.9-1.3,3.5-3.6,4.7-6.7c0.4-0.9,0.8-1.6,1.3-2.1c0.5-0.5,1.3-0.7,2.2-0.7h14.4c0.9,0,1.7,0.3,2.4,1
				c0.7,0.7,1,1.5,0.9,2.4c-0.1,1.5-0.5,3.3-1.3,5.4c-0.8,2.1-2,4.2-3.6,6.3c-1.7,2.2-3.8,4.2-6.4,6c-2.6,1.8-5.8,3.3-9.5,4.4
				C900.4,133.2,896.1,133.8,891.1,133.8z"/>
			<path class="st0" d="M941.5,132.4c-1,0-1.8-0.3-2.4-0.9c-0.6-0.6-0.9-1.4-0.9-2.4V40.2c0-1,0.3-1.8,0.9-2.4
				c0.6-0.6,1.4-0.9,2.4-0.9H956c0.9,0,1.7,0.3,2.3,0.9c0.6,0.6,0.9,1.4,0.9,2.4v30.3c2.4-2.9,5.4-5.2,8.9-6.9
				c3.5-1.7,7.7-2.6,12.7-2.6c5.3,0,10,1.2,14.1,3.6c4.1,2.4,7.3,5.8,9.6,10.4c2.3,4.5,3.5,10,3.5,16.5V129c0,1-0.3,1.8-0.9,2.4
				c-0.6,0.6-1.4,0.9-2.4,0.9h-14.7c-0.9,0-1.7-0.3-2.3-0.9c-0.6-0.6-0.9-1.4-0.9-2.4V92.3c0-4.8-1.2-8.5-3.5-11.1
				c-2.3-2.6-5.7-4-10-4c-4.2,0-7.6,1.3-10.2,4c-2.6,2.6-3.8,6.3-3.8,11.1V129c0,1-0.3,1.8-0.9,2.4c-0.6,0.6-1.4,0.9-2.3,0.9H941.5z
				"/>
		</g>
	</g>
</g>
</svg>
