<?xml version="1.0" encoding="utf-8"?>
<!-- Generator: Adobe Illustrator 26.5.0, SVG Export Plug-In . SVG Version: 6.00 Build 0)  -->
<svg version="1.1" id="Layer_1" xmlns="http://www.w3.org/2000/svg" xmlns:xlink="http://www.w3.org/1999/xlink" x="0px" y="0px"
	 viewBox="0 0 64 64" style="enable-background:new 0 0 64 64;" xml:space="preserve">
<style type="text/css">
	.st0{fill:#FFFFFF;}
</style>
<g>
	<g>
		<path class="st0" d="M32.6,45.2c0.4,1.3-0.3,2.8-1.5,3.4c-1.1,0.5-2.4,0.2-3.2-0.6L25,49c-0.7,0.3-1.2,0.9-1.3,1.6v0
			c-0.1,0.7,0.1,1.5,0.7,1.9l2.4,2c1-0.5,2.3-0.3,3.2,0.5c1,0.9,1.1,2.6,0.3,3.7c-1,1.3-2.9,1.6-4.1,0.5c-0.9-0.7-1.2-1.9-0.9-2.9
			c0,0,0,0,0,0l-2.4-2c-0.6-0.5-1.3-0.6-2-0.3h0c-0.7,0.3-1.2,0.9-1.3,1.6L19,58.7c1,0.6,1.5,1.8,1.2,3.1c-0.3,1.3-1.6,2.3-3,2.1
			c-1.7-0.2-2.8-1.7-2.5-3.3c0.2-1.1,1-2,2.1-2.3c0,0,0,0,0,0l0.5-3.1c0.1-0.7-0.1-1.5-0.7-1.9h0c-0.6-0.5-1.3-0.6-2-0.3L11.5,54
			c-0.1,1.1-0.9,2.2-2.1,2.5c-1.3,0.4-2.8-0.3-3.4-1.6c-0.7-1.5,0.1-3.3,1.6-3.8c1.1-0.4,2.2-0.1,3,0.7c0,0,0,0,0,0l2.9-1.1
			c0.7-0.3,1.2-0.9,1.4-1.6h0c0.1-0.7-0.1-1.4-0.6-1.9c-4.3-4.1-6.8-10-6.8-16c0-4.2,1.2-8.4,3.5-11.9c2.2-3.5,5.3-6.2,9-8
			c0.9-0.5,1.9-0.8,2.9-1.2c0.1,0,0.2,0,0.2-0.1c0.2-1,0.9-1.9,2-2.2c1.3-0.4,2.8,0.3,3.4,1.6c0.7,1.5-0.1,3.3-1.6,3.8
			c-1.2,0.4-2.5,0-3.2-0.9c0,0,0,0,0,0c-0.9,0.3-1.8,0.6-2.7,1.1C14.2,16.8,9.9,23.6,9.9,31.3c0,5.2,2.1,10.3,5.8,14
			c0.6,0.6,1.4,0.7,2.1,0.5h0c0.7-0.2,1.2-0.8,1.3-1.5l0.5-3.1c-0.9-0.6-1.5-1.8-1.1-3.1c0.3-1.3,1.6-2.3,3-2.1
			c1.7,0.2,2.8,1.7,2.5,3.3c-0.2,1.1-1,2-2.1,2.3l-0.5,3c-0.1,0.7,0.1,1.5,0.7,1.9h0c0.6,0.5,1.3,0.6,2,0.3l2.9-1.1
			c0.1-1.1,0.8-2.1,1.8-2.5C30.5,42.7,32.2,43.6,32.6,45.2z"/>
		<path class="st0" d="M56.6,12.5c-1.1,0.5-2.4,0.2-3.2-0.6L50.6,13c-0.7,0.3-1.2,0.9-1.4,1.6v0c-0.1,0.7,0.1,1.4,0.6,1.9
			c2.1,2,3.7,4.4,4.9,7c1.3,2.8,1.9,5.9,1.9,9c0,4.2-1.2,8.4-3.5,11.9c-2.2,3.5-5.3,6.2-9,8c-0.9,0.5-1.9,0.8-2.9,1.2
			c-0.1,0-0.2,0-0.2,0.1c-0.2,1-0.9,1.9-2,2.2c-1.3,0.4-2.8-0.3-3.4-1.6c-0.7-1.5,0.1-3.3,1.6-3.8c1.2-0.4,2.5,0,3.2,0.9
			c0,0,0,0,0,0c0.9-0.3,1.8-0.6,2.7-1.1C50,47,54.3,40.2,54.3,32.5c0-5.2-2.1-10.3-5.8-14c-0.6-0.6-1.4-0.7-2.1-0.5h0
			c-0.7,0.2-1.2,0.8-1.3,1.5l-0.5,3.1c0.9,0.6,1.5,1.8,1.1,3.1c-0.3,1.3-1.6,2.3-3,2.1c-1.7-0.2-2.8-1.7-2.5-3.3
			c0.2-1.1,1-2,2.1-2.3l0.5-3c0.1-0.7-0.1-1.5-0.7-1.9l0,0c-0.6-0.5-1.3-0.6-2-0.3L37.1,18c-0.1,1.1-0.9,2.2-2.1,2.5
			c-1.3,0.4-2.8-0.3-3.4-1.6c-0.7-1.5,0.1-3.3,1.6-3.8c1.1-0.4,2.2-0.1,3,0.7l2.9-1.1c0.7-0.3,1.2-0.9,1.3-1.6v0
			c0.1-0.7-0.1-1.5-0.7-1.9l-2.4-2c-1,0.5-2.3,0.3-3.2-0.5c-1-1-1.1-2.6-0.3-3.7c1-1.3,2.9-1.6,4.1-0.5c0.9,0.7,1.2,1.9,0.9,2.9
			l2.4,2c0.6,0.5,1.3,0.6,2,0.3l0,0c0.7-0.3,1.2-0.9,1.3-1.6l0.5-3.1c-1-0.6-1.5-1.8-1.2-3.1c0.3-1.3,1.6-2.3,3-2.1
			c1.7,0.2,2.8,1.7,2.5,3.3c-0.2,1.1-1,2-2.1,2.3L47,8.5c-0.1,0.7,0.1,1.5,0.7,1.9v0c0.6,0.5,1.3,0.6,2,0.3l2.9-1.1
			c0.1-1.1,0.8-2.1,1.8-2.5c1.5-0.6,3.2,0.3,3.7,1.9C58.6,10.5,57.9,12,56.6,12.5z"/>
	</g>
</g>
</svg>
