<?xml version="1.0" encoding="utf-8"?>
<!-- Generator: Adobe Illustrator 26.5.0, SVG Export Plug-In . SVG Version: 6.00 Build 0)  -->
<svg version="1.1" id="Layer_1" xmlns="http://www.w3.org/2000/svg" xmlns:xlink="http://www.w3.org/1999/xlink" x="0px" y="0px"
	 viewBox="0 0 1023.8 224.9" style="enable-background:new 0 0 1023.8 224.9;" xml:space="preserve">
<style type="text/css">
	.st0{fill:#333333;}
	.st1{fill:#D18D20;}
</style>
<g>
	<circle class="st0" cx="232.3" cy="112" r="107.3"/>
	<g>
		<g>
			<path class="st1" d="M233.7,143.2c0.9,3.1-0.6,6.5-3.6,7.9c-2.7,1.2-5.7,0.6-7.6-1.3l-6.9,2.5c-1.6,0.6-2.8,2-3.1,3.7h0
				c-0.3,1.7,0.4,3.4,1.7,4.6l5.6,4.7c2.4-1.2,5.5-0.8,7.6,1.2c2.2,2.2,2.6,6.2,0.7,8.7c-2.3,3.1-6.7,3.7-9.7,1.2
				c-2.1-1.7-2.8-4.4-2.2-6.9v0l-5.6-4.7c-1.3-1.1-3.2-1.4-4.8-0.8h0c-1.6,0.6-2.8,2-3.1,3.7l-1.2,7.2c2.2,1.5,3.4,4.3,2.7,7.2
				c-0.8,3.2-3.9,5.3-7.1,5c-3.9-0.4-6.6-4-5.9-7.8c0.5-2.7,2.4-4.7,4.9-5.3l0,0l1.2-7.2c0.3-1.7-0.4-3.4-1.7-4.6h0
				c-1.3-1.1-3.2-1.4-4.8-0.8l-6.8,2.5c-0.2,2.7-2,5.1-4.9,5.9c-3.2,0.9-6.6-0.7-7.9-3.7c-1.6-3.6,0.2-7.7,3.8-9
				c2.5-0.9,5.3-0.2,7.1,1.6c0,0,0,0,0,0l6.7-2.5c1.7-0.6,2.9-2.1,3.2-3.8l0,0c0.3-1.6-0.3-3.3-1.4-4.4c-10.1-9.7-16-23.5-16-37.6
				c0-10,2.8-19.6,8.1-28c5.2-8.1,12.5-14.7,21.1-18.9c2.2-1.1,4.5-2,6.8-2.7c0.2-0.1,0.4-0.1,0.5-0.2c0.5-2.4,2.2-4.4,4.7-5.2
				c3.2-0.9,6.6,0.7,7.9,3.7c1.6,3.6-0.2,7.7-3.8,9c-2.8,1-5.8,0.1-7.5-2.1c0,0,0,0,0,0c-2.1,0.7-4.2,1.5-6.2,2.5
				c-16.1,7.9-26.2,23.9-26.2,41.9c0,12.3,5,24.2,13.6,32.9c1.3,1.3,3.2,1.7,5,1.1h0c1.6-0.6,2.7-2,3-3.6l1.2-7.2
				c-2.2-1.5-3.4-4.3-2.7-7.2c0.8-3.2,3.9-5.3,7.1-5c3.9,0.4,6.6,4,5.9,7.8c-0.5,2.7-2.4,4.7-4.9,5.3l-1.2,7.1
				c-0.3,1.7,0.4,3.4,1.7,4.6l0,0c1.3,1.1,3.2,1.4,4.8,0.8l6.9-2.5c0.2-2.5,1.8-4.8,4.3-5.8C228.5,137.5,232.6,139.4,233.7,143.2z"
				/>
			<path class="st1" d="M290.1,66.5c-2.7,1.2-5.7,0.6-7.6-1.3l-6.7,2.5c-1.7,0.6-2.9,2.1-3.2,3.8v0c-0.3,1.6,0.3,3.3,1.4,4.4
				c4.9,4.7,8.8,10.2,11.5,16.4c3,6.7,4.5,13.8,4.5,21.1c0,10-2.8,19.6-8.1,28c-5.2,8.1-12.5,14.7-21.1,18.9c-2.2,1.1-4.5,2-6.8,2.7
				c-0.2,0.1-0.4,0.1-0.5,0.2c-0.5,2.4-2.2,4.4-4.7,5.2c-3.2,0.9-6.6-0.7-7.9-3.7c-1.6-3.6,0.2-7.7,3.8-9c2.8-1,5.8-0.1,7.5,2.1
				c0,0,0,0,0,0c2.1-0.7,4.2-1.5,6.2-2.5c16.1-7.9,26.2-23.9,26.2-41.9c0-12.3-5-24.2-13.6-32.9c-1.3-1.3-3.2-1.7-5-1.1l0,0
				c-1.6,0.6-2.7,2-3,3.6l-1.2,7.2c2.2,1.5,3.4,4.3,2.7,7.2c-0.8,3.2-3.9,5.3-7.1,5c-3.9-0.4-6.6-4-5.9-7.8c0.5-2.7,2.4-4.7,4.9-5.3
				l1.2-7.1c0.3-1.7-0.4-3.4-1.7-4.6v0c-1.3-1.1-3.2-1.4-4.8-0.8l-6.9,2.5c-0.2,2.7-2,5.1-4.9,5.9c-3.2,0.9-6.6-0.7-7.9-3.7
				c-1.6-3.6,0.2-7.7,3.8-9c2.5-0.9,5.3-0.2,7.1,1.6l6.9-2.5c1.6-0.6,2.8-2,3.1-3.7v0c0.3-1.7-0.4-3.4-1.7-4.6l-5.6-4.7
				c-2.4,1.2-5.5,0.8-7.6-1.2c-2.4-2.3-2.7-6-0.7-8.7c2.3-3.1,6.7-3.7,9.7-1.2c2.1,1.7,2.8,4.4,2.2,6.9l5.6,4.7
				c1.3,1.1,3.2,1.4,4.8,0.8v0c1.6-0.6,2.8-2,3.1-3.7l1.2-7.2c-2.2-1.5-3.4-4.3-2.7-7.2c0.8-3.2,3.9-5.3,7.1-5
				c3.9,0.4,6.6,4,5.9,7.8c-0.5,2.7-2.4,4.7-4.9,5.3l-1.2,7.2c-0.3,1.7,0.4,3.4,1.7,4.6v0c1.3,1.1,3.2,1.4,4.8,0.8l6.8-2.5
				c0.2-2.5,1.8-4.8,4.3-5.8c3.6-1.3,7.6,0.6,8.7,4.4C294.6,61.7,293.1,65.2,290.1,66.5z"/>
		</g>
	</g>
	<g>
		<path class="st0" d="M372.6,89.9c-0.6,0-1.1-0.2-1.5-0.6c-0.4-0.4-0.6-0.9-0.6-1.5V47.7c0-0.6,0.2-1.1,0.6-1.5
			c0.4-0.4,0.9-0.6,1.5-0.6h8.4c0.6,0,1.1,0.2,1.5,0.6c0.4,0.4,0.6,0.9,0.6,1.5V51c1.5-1.8,3.4-3.3,5.7-4.5c2.3-1.2,5.2-1.8,8.5-1.8
			c3.4,0,6.3,0.8,8.8,2.3c2.5,1.5,4.5,3.7,6,6.6c1.5,2.9,2.2,6.4,2.2,10.5v23.8c0,0.6-0.2,1.1-0.6,1.5c-0.4,0.4-0.9,0.6-1.5,0.6h-9
			c-0.6,0-1.1-0.2-1.5-0.6c-0.4-0.4-0.6-0.9-0.6-1.5V64.5c0-3-0.7-5.4-2.2-7c-1.5-1.7-3.6-2.5-6.4-2.5c-2.7,0-4.8,0.8-6.4,2.5
			c-1.6,1.7-2.4,4-2.4,7v23.3c0,0.6-0.2,1.1-0.6,1.5c-0.4,0.4-0.9,0.6-1.5,0.6H372.6z"/>
		<path class="st0" d="M444.4,90.8c-6.5,0-11.7-1.8-15.6-5.5c-3.8-3.6-5.9-8.9-6.1-15.9c0-0.5,0-1.1,0-1.8c0-0.8,0-1.4,0-1.8
			c0.2-4.4,1.2-8.2,3-11.3c1.8-3.2,4.2-5.6,7.4-7.3c3.2-1.7,6.9-2.5,11.2-2.5c4.8,0,8.8,1,12,2.9c3.2,2,5.6,4.6,7.3,8
			c1.6,3.4,2.4,7.3,2.4,11.6v2c0,0.6-0.2,1.1-0.6,1.5c-0.4,0.4-0.9,0.6-1.5,0.6h-27.9c0,0.1,0,0.2,0,0.3c0,0.1,0,0.3,0,0.4
			c0.1,1.8,0.4,3.5,1.1,5c0.7,1.5,1.6,2.7,2.8,3.6c1.2,0.9,2.7,1.4,4.4,1.4c1.4,0,2.6-0.2,3.5-0.6c0.9-0.4,1.7-0.9,2.3-1.5
			c0.6-0.6,1-1.1,1.3-1.5c0.5-0.6,0.9-0.9,1.2-1.1c0.3-0.1,0.8-0.2,1.5-0.2h8.9c0.6,0,1,0.2,1.4,0.5c0.4,0.3,0.5,0.8,0.5,1.3
			c-0.1,0.9-0.5,2-1.4,3.4c-0.9,1.3-2.2,2.6-3.9,3.9c-1.7,1.3-3.8,2.3-6.4,3.2C450.6,90.3,447.7,90.8,444.4,90.8z M435.9,63.5h16.7
			v-0.2c0-2-0.3-3.8-1-5.3c-0.7-1.5-1.6-2.7-2.9-3.5c-1.3-0.9-2.8-1.3-4.5-1.3c-1.8,0-3.3,0.4-4.5,1.3c-1.3,0.9-2.2,2-2.9,3.5
			c-0.7,1.5-1,3.3-1,5.3V63.5z"/>
		<path class="st0" d="M490.8,90.8c-3.3,0-6.2-0.8-8.7-2.3c-2.5-1.5-4.5-3.7-5.9-6.6c-1.4-2.9-2.1-6.4-2.1-10.5V47.7
			c0-0.6,0.2-1.1,0.6-1.5c0.4-0.4,0.9-0.6,1.5-0.6h9c0.6,0,1.1,0.2,1.5,0.6c0.4,0.4,0.6,0.9,0.6,1.5V71c0,6.4,2.8,9.6,8.4,9.6
			c2.7,0,4.8-0.8,6.4-2.5c1.6-1.7,2.3-4,2.3-7V47.7c0-0.6,0.2-1.1,0.6-1.5c0.4-0.4,0.9-0.6,1.5-0.6h9c0.6,0,1.1,0.2,1.5,0.6
			c0.4,0.4,0.6,0.9,0.6,1.5v40.1c0,0.6-0.2,1.1-0.6,1.5c-0.4,0.4-0.9,0.6-1.5,0.6h-8.4c-0.6,0-1.1-0.2-1.5-0.6
			c-0.4-0.4-0.6-0.9-0.6-1.5v-3.3c-1.5,2-3.4,3.6-5.7,4.7C497,90.2,494.1,90.8,490.8,90.8z"/>
		<path class="st0" d="M530.4,89.9c-0.6,0-1.1-0.2-1.5-0.6c-0.4-0.4-0.6-0.9-0.6-1.5V47.7c0-0.6,0.2-1.1,0.6-1.5
			c0.4-0.4,0.9-0.6,1.5-0.6h8.4c0.6,0,1.1,0.2,1.5,0.6c0.4,0.4,0.6,0.9,0.6,1.5v3.4c1.4-1.8,3.2-3.1,5.2-4.1c2.1-1,4.5-1.5,7.2-1.5
			h3.7c0.6,0,1.1,0.2,1.5,0.6c0.4,0.4,0.6,0.9,0.6,1.5V55c0,0.6-0.2,1.1-0.6,1.5c-0.4,0.4-0.9,0.6-1.5,0.6h-7.5
			c-2.5,0-4.5,0.7-5.9,2.1c-1.4,1.4-2.1,3.4-2.1,5.9v22.6c0,0.6-0.2,1.1-0.6,1.5c-0.4,0.4-0.9,0.6-1.5,0.6H530.4z"/>
		<path class="st0" d="M585.3,90.8c-4.7,0-8.7-0.8-11.9-2.3c-3.2-1.6-5.6-3.8-7.3-6.7c-1.7-2.9-2.6-6.3-2.8-10.2
			c-0.1-1.1-0.1-2.4-0.1-3.9c0-1.5,0-2.7,0.1-3.8c0.2-3.9,1.1-7.3,2.9-10.2c1.8-2.9,4.2-5.1,7.4-6.7c3.2-1.6,7.1-2.3,11.6-2.3
			c4.5,0,8.3,0.8,11.5,2.3c3.2,1.6,5.7,3.8,7.4,6.7c1.8,2.9,2.7,6.3,2.9,10.2c0.1,1.1,0.2,2.3,0.2,3.8c0,1.5-0.1,2.7-0.2,3.9
			c-0.2,3.9-1.1,7.3-2.8,10.2c-1.7,2.9-4.1,5.1-7.3,6.7C593.8,90,589.9,90.8,585.3,90.8z M585.3,81.4c2.8,0,4.9-0.9,6.3-2.6
			c1.4-1.7,2.2-4.3,2.3-7.6c0.1-0.9,0.1-2,0.1-3.4c0-1.4,0-2.6-0.1-3.4c-0.1-3.3-0.9-5.8-2.3-7.6c-1.4-1.8-3.5-2.6-6.3-2.6
			c-2.8,0-4.9,0.9-6.4,2.6c-1.5,1.8-2.2,4.3-2.3,7.6c-0.1,0.9-0.1,2-0.1,3.4c0,1.4,0,2.6,0.1,3.4c0.1,3.4,0.9,5.9,2.3,7.6
			C580.4,80.5,582.5,81.4,585.3,81.4z"/>
		<path class="st0" d="M618.3,89.9c-0.6,0-1.1-0.2-1.5-0.6c-0.4-0.4-0.6-0.9-0.6-1.5V47.7c0-0.6,0.2-1.1,0.6-1.5
			c0.4-0.4,0.9-0.6,1.5-0.6h7.9c0.6,0,1.1,0.2,1.5,0.6c0.4,0.4,0.6,0.9,0.6,1.5v2.9c1.1-1.6,2.7-3,4.7-4.1c2-1.1,4.4-1.7,7.2-1.8
			c6.6-0.1,11.1,2.4,13.6,7.5c1.3-2.2,3.2-4,5.7-5.4c2.5-1.4,5.2-2.1,8.1-2.1c3,0,5.6,0.7,8,2c2.4,1.3,4.3,3.4,5.7,6.1
			c1.4,2.8,2.1,6.3,2.1,10.6v24.3c0,0.6-0.2,1.1-0.6,1.5c-0.4,0.4-0.9,0.6-1.5,0.6H673c-0.6,0-1.1-0.2-1.5-0.6
			c-0.4-0.4-0.6-0.9-0.6-1.5V64.1c0-2.3-0.3-4.2-1-5.5c-0.7-1.3-1.6-2.3-2.7-2.9c-1.1-0.6-2.3-0.9-3.7-0.9c-1.2,0-2.3,0.3-3.5,0.9
			c-1.1,0.6-2,1.5-2.7,2.9c-0.7,1.3-1.1,3.2-1.1,5.5v23.6c0,0.6-0.2,1.1-0.6,1.5c-0.4,0.4-0.9,0.6-1.5,0.6h-8.4
			c-0.6,0-1.1-0.2-1.5-0.6c-0.4-0.4-0.6-0.9-0.6-1.5V64.1c0-2.3-0.3-4.2-1-5.5c-0.7-1.3-1.6-2.3-2.7-2.9c-1.1-0.6-2.3-0.9-3.6-0.9
			c-1.2,0-2.4,0.3-3.5,0.9c-1.1,0.6-2.1,1.6-2.8,2.9c-0.7,1.3-1.1,3.1-1.1,5.4v23.7c0,0.6-0.2,1.1-0.6,1.5c-0.4,0.4-0.9,0.6-1.5,0.6
			H618.3z"/>
		<path class="st0" d="M706.9,90.8c-3,0-5.7-0.6-8.1-1.7c-2.4-1.2-4.3-2.7-5.7-4.7c-1.4-2-2.1-4.2-2.1-6.7c0-4,1.6-7.2,4.9-9.6
			c3.3-2.3,7.6-3.9,12.9-4.8l11.2-1.6v-1.5c0-2.2-0.5-3.9-1.5-5.1c-1-1.2-2.8-1.8-5.4-1.8c-1.9,0-3.4,0.4-4.5,1.1
			c-1.1,0.7-2,1.7-2.6,2.9c-0.5,0.7-1.1,1.1-2,1.1h-8.1c-0.6,0-1.1-0.2-1.5-0.6c-0.3-0.4-0.5-0.8-0.4-1.3c0-1,0.4-2.1,1.1-3.4
			c0.7-1.3,1.9-2.6,3.4-3.9c1.5-1.3,3.5-2.3,5.9-3.2c2.4-0.9,5.3-1.3,8.8-1.3c3.6,0,6.7,0.4,9.2,1.3c2.6,0.9,4.6,2,6.1,3.6
			c1.5,1.5,2.7,3.3,3.4,5.3c0.7,2,1.1,4.2,1.1,6.5v26.4c0,0.6-0.2,1.1-0.6,1.5c-0.4,0.4-0.9,0.6-1.5,0.6h-8.4
			c-0.6,0-1.1-0.2-1.5-0.6c-0.4-0.4-0.6-0.9-0.6-1.5v-3.2c-0.7,1.1-1.7,2.1-3,3c-1.3,0.9-2.7,1.7-4.5,2.3
			C711.2,90.5,709.2,90.8,706.9,90.8z M710.3,81.9c1.9,0,3.6-0.4,5-1.2c1.5-0.8,2.6-2,3.5-3.7c0.9-1.6,1.3-3.7,1.3-6.2v-1.5
			l-7.9,1.3c-3.1,0.5-5.3,1.3-6.7,2.3c-1.4,1-2.1,2.3-2.1,3.8c0,1.1,0.3,2,1,2.8c0.7,0.8,1.5,1.4,2.6,1.8
			C708,81.7,709.1,81.9,710.3,81.9z"/>
		<path class="st0" d="M764.3,89.9c-3.5,0-6.5-0.6-9-1.7c-2.5-1.2-4.4-3-5.7-5.4c-1.3-2.4-1.9-5.5-1.9-9.2V55.6H741
			c-0.6,0-1.1-0.2-1.5-0.6c-0.4-0.4-0.6-0.9-0.6-1.5v-5.8c0-0.6,0.2-1.1,0.6-1.5c0.4-0.4,0.9-0.6,1.5-0.6h6.7V31.4
			c0-0.6,0.2-1.1,0.6-1.5c0.4-0.4,0.9-0.6,1.5-0.6h8.4c0.6,0,1.1,0.2,1.5,0.6c0.4,0.4,0.6,0.9,0.6,1.5v14.1H771
			c0.6,0,1.1,0.2,1.5,0.6c0.4,0.4,0.6,0.9,0.6,1.5v5.8c0,0.6-0.2,1.1-0.6,1.5c-0.4,0.4-0.9,0.6-1.5,0.6h-10.7v16.9
			c0,2.2,0.4,3.9,1.2,5.1c0.8,1.2,2.1,1.8,4.1,1.8h6.2c0.6,0,1.1,0.2,1.5,0.6c0.4,0.4,0.6,0.9,0.6,1.5v6.3c0,0.6-0.2,1.1-0.6,1.5
			c-0.4,0.4-0.9,0.6-1.5,0.6H764.3z"/>
		<path class="st0" d="M800.9,90.8c-4.2,0-7.8-0.8-11-2.3c-3.2-1.5-5.6-3.8-7.5-6.7c-1.8-2.9-2.8-6.4-3-10.5
			c-0.1-0.9-0.1-2.1-0.1-3.5c0-1.4,0-2.5,0.1-3.5c0.2-4.2,1.2-7.7,2.9-10.6c1.8-2.9,4.3-5.2,7.5-6.7c3.2-1.5,6.9-2.3,11-2.3
			c3.8,0,7.1,0.5,9.7,1.6c2.7,1.1,4.9,2.4,6.6,4c1.7,1.6,3,3.3,3.8,5c0.8,1.7,1.3,3.3,1.3,4.6c0.1,0.6-0.1,1.1-0.6,1.5
			c-0.4,0.4-0.9,0.6-1.5,0.6h-9.1c-0.6,0-1-0.2-1.3-0.5c-0.3-0.3-0.6-0.8-0.9-1.3c-0.8-2-1.8-3.4-3.1-4.3c-1.3-0.9-2.8-1.3-4.7-1.3
			c-2.6,0-4.6,0.8-6.1,2.5c-1.5,1.7-2.3,4.2-2.4,7.7c-0.1,2.2-0.1,4.2,0,6.1c0.2,3.5,1,6.1,2.4,7.7c1.5,1.6,3.5,2.4,6,2.4
			c2,0,3.6-0.4,4.8-1.3c1.2-0.9,2.2-2.3,3-4.3c0.2-0.6,0.5-1,0.9-1.3c0.3-0.3,0.8-0.5,1.4-0.5h9.1c0.6,0,1.1,0.2,1.5,0.6
			c0.4,0.4,0.6,0.9,0.6,1.5c-0.1,1-0.3,2.1-0.8,3.4c-0.5,1.3-1.3,2.6-2.3,4c-1.1,1.4-2.4,2.6-4.1,3.8c-1.7,1.2-3.7,2.1-6,2.8
			C806.8,90.4,804.1,90.8,800.9,90.8z"/>
		<path class="st0" d="M832.8,89.9c-0.6,0-1.1-0.2-1.5-0.6c-0.4-0.4-0.6-0.9-0.6-1.5V31.4c0-0.6,0.2-1.1,0.6-1.5
			c0.4-0.4,0.9-0.6,1.5-0.6h9.2c0.6,0,1.1,0.2,1.5,0.6c0.4,0.4,0.6,0.9,0.6,1.5v19.2c1.5-1.8,3.4-3.3,5.6-4.4c2.2-1.1,4.9-1.6,8-1.6
			c3.4,0,6.3,0.8,8.9,2.3c2.6,1.5,4.6,3.7,6.1,6.6c1.5,2.9,2.2,6.4,2.2,10.5v23.8c0,0.6-0.2,1.1-0.6,1.5c-0.4,0.4-0.9,0.6-1.5,0.6
			h-9.3c-0.6,0-1.1-0.2-1.5-0.6c-0.4-0.4-0.6-0.9-0.6-1.5V64.5c0-3-0.7-5.4-2.2-7c-1.5-1.7-3.6-2.5-6.3-2.5c-2.7,0-4.8,0.8-6.4,2.5
			c-1.6,1.7-2.4,4-2.4,7v23.3c0,0.6-0.2,1.1-0.6,1.5c-0.4,0.4-0.9,0.6-1.5,0.6H832.8z"/>
		<path class="st1" d="M388.9,172.1c-4,0-7.4-0.8-10.2-2.3c-2.8-1.6-4.9-3.8-6.4-6.8c-1.5-3-2.2-6.5-2.3-10.5
			c-0.1-0.9-0.1-2-0.1-3.4c0-1.4,0-2.6,0.1-3.4c0.1-4.1,0.9-7.6,2.3-10.5c1.5-2.9,3.6-5.2,6.4-6.7c2.8-1.6,6.2-2.3,10.2-2.3
			c3,0,5.6,0.4,7.8,1.2c2.2,0.8,4,1.9,5.4,3.2c1.4,1.3,2.5,2.8,3.2,4.4c0.7,1.6,1.1,3.2,1.2,4.7c0.1,0.6-0.1,1-0.5,1.4
			c-0.4,0.3-0.9,0.5-1.4,0.5h-1.2c-0.6,0-1-0.1-1.2-0.4c-0.3-0.3-0.5-0.7-0.8-1.4c-1.2-3.2-2.8-5.5-4.9-6.8
			c-2.1-1.3-4.6-1.9-7.6-1.9c-3.9,0-7.1,1.2-9.6,3.5c-2.5,2.4-3.9,6.2-4.1,11.6c-0.1,2-0.1,4,0,6c0.2,5.3,1.5,9.2,4.1,11.6
			c2.5,2.4,5.7,3.5,9.6,3.5c3,0,5.6-0.6,7.6-1.9c2.1-1.3,3.7-3.5,4.9-6.8c0.3-0.7,0.6-1.2,0.8-1.4c0.3-0.3,0.7-0.4,1.2-0.4h1.2
			c0.5,0,1,0.2,1.4,0.5c0.4,0.3,0.6,0.8,0.5,1.4c-0.1,1.3-0.3,2.5-0.8,3.8c-0.5,1.3-1.2,2.5-2.1,3.7s-2.1,2.2-3.5,3.2
			c-1.4,0.9-3,1.6-4.9,2.2C393.4,171.8,391.3,172.1,388.9,172.1z"/>
		<path class="st1" d="M434.7,172.1c-4.1,0-7.5-0.9-10.3-2.6c-2.8-1.7-4.9-4-6.3-7c-1.5-3-2.2-6.3-2.3-9.9c-0.1-0.9-0.1-2-0.1-3.6
			c0-1.5,0-2.7,0.1-3.6c0.1-3.7,0.9-7,2.3-9.9c1.5-2.9,3.6-5.2,6.3-7c2.8-1.7,6.2-2.6,10.3-2.6c4.1,0,7.5,0.9,10.3,2.6
			c2.8,1.7,4.9,4,6.3,7c1.5,2.9,2.2,6.2,2.3,9.9c0.1,0.9,0.1,2,0.1,3.6c0,1.5,0,2.7-0.1,3.6c-0.1,3.6-0.9,6.9-2.3,9.9
			c-1.5,3-3.6,5.3-6.3,7C442.2,171.2,438.8,172.1,434.7,172.1z M434.7,167.1c4,0,7.2-1.3,9.7-3.8c2.5-2.6,3.8-6.3,4-11.1
			c0.1-0.9,0.1-1.9,0.1-3.2c0-1.3,0-2.3-0.1-3.2c-0.2-4.9-1.5-8.6-4-11.1c-2.5-2.5-5.7-3.8-9.7-3.8c-4,0-7.2,1.3-9.7,3.8
			c-2.5,2.5-3.8,6.2-4,11.1c-0.1,0.9-0.1,1.9-0.1,3.2c0,1.3,0,2.3,0.1,3.2c0.2,4.8,1.5,8.5,4,11.1
			C427.5,165.9,430.7,167.1,434.7,167.1z"/>
		<path class="st1" d="M467.3,171.2c-0.6,0-1-0.2-1.4-0.5c-0.3-0.3-0.5-0.8-0.5-1.4v-40.6c0-0.6,0.2-1,0.5-1.4
			c0.3-0.3,0.8-0.5,1.4-0.5h1.5c0.6,0,1,0.2,1.4,0.5c0.3,0.3,0.5,0.8,0.5,1.4v4c1.5-2,3.4-3.6,5.6-4.9c2.2-1.3,5.1-1.9,8.7-1.9
			c3.9,0,7.1,0.8,9.7,2.5c2.6,1.7,4.5,4,5.8,6.8c1.3,2.9,1.9,6.1,1.9,9.8v24.2c0,0.6-0.2,1-0.5,1.4c-0.3,0.3-0.8,0.5-1.4,0.5h-1.5
			c-0.6,0-1-0.2-1.4-0.5c-0.3-0.3-0.5-0.8-0.5-1.4v-23.8c0-4.6-1.1-8.1-3.3-10.7c-2.2-2.6-5.5-3.9-9.7-3.9c-4,0-7.3,1.3-9.8,3.9
			c-2.5,2.6-3.7,6.2-3.7,10.7v23.8c0,0.6-0.2,1-0.5,1.4c-0.3,0.3-0.8,0.5-1.4,0.5H467.3z"/>
		<path class="st1" d="M521.1,171.2c-0.6,0-1-0.2-1.4-0.5c-0.3-0.3-0.5-0.8-0.5-1.4v-37.6h-7.6c-0.6,0-1-0.2-1.4-0.5
			c-0.3-0.3-0.5-0.8-0.5-1.4v-1.2c0-0.6,0.2-1,0.5-1.4c0.3-0.3,0.8-0.5,1.4-0.5h7.6V122c0-2.6,0.4-4.9,1.1-7c0.7-2.1,2-3.8,3.8-5
			c1.8-1.3,4.5-1.9,8-1.9h4.4c0.6,0,1,0.2,1.4,0.5c0.3,0.3,0.5,0.8,0.5,1.4v1.2c0,0.6-0.2,1-0.5,1.4c-0.3,0.3-0.8,0.5-1.4,0.5h-4.4
			c-3,0-5,0.8-6.1,2.4c-1.1,1.6-1.6,3.9-1.6,7v4.4h11.3c0.6,0,1,0.2,1.4,0.5c0.3,0.3,0.5,0.8,0.5,1.4v1.2c0,0.6-0.2,1-0.5,1.4
			c-0.3,0.3-0.8,0.5-1.4,0.5h-11.3v37.6c0,0.6-0.2,1-0.5,1.4c-0.3,0.3-0.8,0.5-1.4,0.5H521.1z"/>
		<path class="st1" d="M561.3,172.1c-5.5,0-9.9-1.8-13.1-5.4c-3.2-3.6-5.1-8.3-5.5-14.2c-0.1-0.9-0.1-2-0.1-3.4c0-1.4,0-2.6,0.1-3.4
			c0.3-3.9,1.2-7.3,2.7-10.2c1.5-3,3.7-5.3,6.4-6.9c2.7-1.6,5.9-2.5,9.6-2.5c4,0,7.4,0.9,10.2,2.6c2.8,1.8,4.9,4.3,6.4,7.6
			c1.5,3.3,2.3,7.2,2.3,11.8v1.3c0,0.6-0.2,1-0.6,1.4c-0.4,0.3-0.8,0.5-1.4,0.5h-30.4c0,0.5,0,0.7,0,0.9c0.1,2.6,0.7,5,1.8,7.3
			c1.1,2.3,2.6,4.2,4.6,5.6c2,1.5,4.4,2.2,7.1,2.2c2.4,0,4.5-0.4,6.1-1.1c1.6-0.7,2.9-1.5,3.9-2.4c1-0.9,1.6-1.5,1.9-2
			c0.5-0.7,0.9-1.2,1.2-1.3c0.3-0.1,0.7-0.2,1.4-0.2h1.4c0.5,0,1,0.2,1.3,0.5c0.4,0.3,0.5,0.7,0.5,1.2c-0.1,0.8-0.5,1.8-1.3,2.9
			c-0.8,1.2-2,2.3-3.5,3.5c-1.5,1.1-3.3,2.1-5.5,2.8C566.4,171.7,564,172.1,561.3,172.1z M547.8,146.4h27.1v-0.3
			c0-2.8-0.5-5.4-1.6-7.7c-1.1-2.3-2.6-4.1-4.7-5.4c-2-1.3-4.5-2-7.3-2c-2.8,0-5.3,0.7-7.3,2c-2,1.3-3.6,3.1-4.6,5.4
			c-1.1,2.3-1.6,4.8-1.6,7.7V146.4z"/>
		<path class="st1" d="M593.3,171.2c-0.6,0-1-0.2-1.4-0.5c-0.3-0.3-0.5-0.8-0.5-1.4v-40.5c0-0.6,0.2-1,0.5-1.4
			c0.3-0.4,0.8-0.6,1.4-0.6h1.4c0.6,0,1,0.2,1.4,0.6c0.4,0.4,0.6,0.8,0.6,1.4v3.9c1-2,2.5-3.5,4.4-4.4c1.9-1,4.3-1.5,7.2-1.5h3.2
			c0.6,0,1,0.2,1.4,0.5c0.3,0.3,0.5,0.8,0.5,1.4v1.2c0,0.6-0.2,1-0.5,1.4c-0.3,0.3-0.8,0.5-1.4,0.5h-3.7c-3.4,0-6.1,1-8.1,3
			c-2,2-3,4.7-3,8.1v26.5c0,0.6-0.2,1-0.6,1.4c-0.4,0.3-0.8,0.5-1.4,0.5H593.3z"/>
		<path class="st1" d="M636.6,172.1c-5.5,0-9.9-1.8-13.1-5.4c-3.2-3.6-5.1-8.3-5.5-14.2c-0.1-0.9-0.1-2-0.1-3.4c0-1.4,0-2.6,0.1-3.4
			c0.3-3.9,1.2-7.3,2.7-10.2c1.5-3,3.7-5.3,6.4-6.9c2.7-1.6,5.9-2.5,9.6-2.5c4,0,7.4,0.9,10.2,2.6c2.8,1.8,4.9,4.3,6.4,7.6
			c1.5,3.3,2.3,7.2,2.3,11.8v1.3c0,0.6-0.2,1-0.6,1.4c-0.4,0.3-0.8,0.5-1.4,0.5h-30.4c0,0.5,0,0.7,0,0.9c0.1,2.6,0.7,5,1.8,7.3
			c1.1,2.3,2.6,4.2,4.6,5.6c2,1.5,4.4,2.2,7.1,2.2c2.4,0,4.5-0.4,6.1-1.1c1.6-0.7,2.9-1.5,3.9-2.4c1-0.9,1.6-1.5,1.9-2
			c0.5-0.7,0.9-1.2,1.2-1.3c0.3-0.1,0.7-0.2,1.4-0.2h1.4c0.5,0,1,0.2,1.3,0.5c0.4,0.3,0.5,0.7,0.5,1.2c-0.1,0.8-0.5,1.8-1.3,2.9
			c-0.8,1.2-2,2.3-3.5,3.5c-1.5,1.1-3.3,2.1-5.5,2.8C641.6,171.7,639.2,172.1,636.6,172.1z M623.1,146.4h27.1v-0.3
			c0-2.8-0.5-5.4-1.6-7.7c-1.1-2.3-2.6-4.1-4.7-5.4c-2-1.3-4.5-2-7.3-2c-2.8,0-5.3,0.7-7.3,2c-2,1.3-3.6,3.1-4.6,5.4
			c-1.1,2.3-1.6,4.8-1.6,7.7V146.4z"/>
		<path class="st1" d="M668.6,171.2c-0.6,0-1-0.2-1.4-0.5c-0.3-0.3-0.5-0.8-0.5-1.4v-40.6c0-0.6,0.2-1,0.5-1.4
			c0.3-0.3,0.8-0.5,1.4-0.5h1.5c0.6,0,1,0.2,1.4,0.5c0.3,0.3,0.5,0.8,0.5,1.4v4c1.5-2,3.4-3.6,5.6-4.9c2.2-1.3,5.1-1.9,8.7-1.9
			c3.9,0,7.1,0.8,9.7,2.5c2.6,1.7,4.5,4,5.8,6.8c1.3,2.9,1.9,6.1,1.9,9.8v24.2c0,0.6-0.2,1-0.5,1.4c-0.3,0.3-0.8,0.5-1.4,0.5h-1.5
			c-0.6,0-1-0.2-1.4-0.5c-0.3-0.3-0.5-0.8-0.5-1.4v-23.8c0-4.6-1.1-8.1-3.3-10.7c-2.2-2.6-5.5-3.9-9.7-3.9c-4,0-7.3,1.3-9.8,3.9
			c-2.5,2.6-3.7,6.2-3.7,10.7v23.8c0,0.6-0.2,1-0.5,1.4c-0.3,0.3-0.8,0.5-1.4,0.5H668.6z"/>
		<path class="st1" d="M733.8,172.1c-4,0-7.4-0.8-10.2-2.3c-2.8-1.6-4.9-3.8-6.4-6.8c-1.5-3-2.2-6.5-2.3-10.5
			c-0.1-0.9-0.1-2-0.1-3.4c0-1.4,0-2.6,0.1-3.4c0.1-4.1,0.9-7.6,2.3-10.5c1.5-2.9,3.6-5.2,6.4-6.7c2.8-1.6,6.2-2.3,10.2-2.3
			c3,0,5.6,0.4,7.8,1.2c2.2,0.8,4,1.9,5.4,3.2c1.4,1.3,2.5,2.8,3.2,4.4c0.7,1.6,1.1,3.2,1.2,4.7c0.1,0.6-0.1,1-0.5,1.4
			c-0.4,0.3-0.9,0.5-1.4,0.5h-1.2c-0.6,0-1-0.1-1.2-0.4c-0.3-0.3-0.5-0.7-0.8-1.4c-1.2-3.2-2.8-5.5-4.9-6.8
			c-2.1-1.3-4.6-1.9-7.6-1.9c-3.9,0-7.1,1.2-9.6,3.5c-2.5,2.4-3.9,6.2-4.1,11.6c-0.1,2-0.1,4,0,6c0.2,5.3,1.5,9.2,4.1,11.6
			c2.5,2.4,5.7,3.5,9.6,3.5c3,0,5.6-0.6,7.6-1.9c2.1-1.3,3.7-3.5,4.9-6.8c0.3-0.7,0.6-1.2,0.8-1.4c0.3-0.3,0.7-0.4,1.2-0.4h1.2
			c0.5,0,1,0.2,1.4,0.5c0.4,0.3,0.6,0.8,0.5,1.4c-0.1,1.3-0.3,2.5-0.8,3.8c-0.5,1.3-1.2,2.5-2.1,3.7s-2.1,2.2-3.5,3.2
			c-1.4,0.9-3,1.6-4.9,2.2S736.2,172.1,733.8,172.1z"/>
		<path class="st1" d="M779.2,172.1c-5.5,0-9.9-1.8-13.1-5.4c-3.2-3.6-5.1-8.3-5.5-14.2c-0.1-0.9-0.1-2-0.1-3.4c0-1.4,0-2.6,0.1-3.4
			c0.3-3.9,1.2-7.3,2.7-10.2c1.5-3,3.7-5.3,6.4-6.9c2.7-1.6,5.9-2.5,9.6-2.5c4,0,7.4,0.9,10.2,2.6c2.8,1.8,4.9,4.3,6.4,7.6
			c1.5,3.3,2.3,7.2,2.3,11.8v1.3c0,0.6-0.2,1-0.6,1.4c-0.4,0.3-0.8,0.5-1.4,0.5h-30.4c0,0.5,0,0.7,0,0.9c0.1,2.6,0.7,5,1.8,7.3
			c1.1,2.3,2.6,4.2,4.6,5.6c2,1.5,4.4,2.2,7.1,2.2c2.4,0,4.5-0.4,6.1-1.1c1.6-0.7,2.9-1.5,3.9-2.4c1-0.9,1.6-1.5,1.9-2
			c0.5-0.7,0.9-1.2,1.2-1.3c0.3-0.1,0.7-0.2,1.4-0.2h1.4c0.5,0,1,0.2,1.3,0.5c0.4,0.3,0.5,0.7,0.5,1.2c-0.1,0.8-0.5,1.8-1.3,2.9
			c-0.8,1.2-2,2.3-3.5,3.5c-1.5,1.1-3.3,2.1-5.5,2.8C784.3,171.7,781.9,172.1,779.2,172.1z M765.8,146.4h27.1v-0.3
			c0-2.8-0.5-5.4-1.6-7.7c-1.1-2.3-2.6-4.1-4.7-5.4c-2-1.3-4.5-2-7.3-2c-2.8,0-5.3,0.7-7.3,2c-2,1.3-3.6,3.1-4.6,5.4
			c-1.1,2.3-1.6,4.8-1.6,7.7V146.4z"/>
	</g>
</g>
</svg>
