<?xml version="1.0" encoding="UTF-8"?>
<svg id="Layer_1" data-name="Layer 1" xmlns="http://www.w3.org/2000/svg" viewBox="0 0 841.89 595.28">
  <defs>
    <style>
      .cls-1, .cls-2 {
        fill: #fff;
      }

      .cls-2 {
        font-size: 92.36px;
      }

      .cls-3 {
        font-family: AtkinsonHyperlegible-Regular, 'Atkinson Hyperlegible';
      }

      .cls-4 {
        font-family: AtkinsonHyperlegible-Bold, 'Atkinson Hyperlegible';
        font-weight: 700;
      }
    </style>
  </defs>
  <text class="cls-2" transform="translate(256.46 286.56)"><tspan class="cls-4"><tspan x="0" y="0">neuromatch</tspan></tspan><tspan class="cls-3"><tspan x="0" y="76">community</tspan></tspan></text>
  <g>
    <path class="cls-1" d="m119.99,360.34c-4.28,1.99-9.06.93-12.13-2.14l-10.98,4.07c-2.61.97-4.51,3.25-4.97,5.99-.08.44-.12.88-.12,1.32,0,2.29,1.01,4.49,2.81,5.99l9.05,7.51c3.91-1.88,8.76-1.29,12.13,1.98,3.59,3.49,4.13,9.91,1.19,13.95-3.67,5.05-10.78,5.89-15.51,1.96-3.33-2.76-4.55-7.11-3.5-11.03l-9.05-7.51c-2.14-1.78-5.07-2.28-7.67-1.31-1.31.48-2.44,1.3-3.29,2.33-.86,1.04-1.45,2.3-1.69,3.67l-1.96,11.53c3.59,2.44,5.53,6.95,4.36,11.53-1.29,5.09-6.2,8.51-11.42,8-6.24-.63-10.55-6.39-9.5-12.47.72-4.25,3.87-7.49,7.77-8.54l1.97-11.55c.47-2.75-.56-5.53-2.7-7.3-1.42-1.18-3.19-1.8-4.98-1.8-.91,0-1.83.16-2.7.49l-10.87,4.02c-.32,4.32-3.26,8.24-7.78,9.51-5.07,1.44-10.54-1.13-12.68-5.95-2.53-5.71.3-12.27,6.06-14.41,4.06-1.5,8.44-.39,11.31,2.48l10.76-3.98c2.68-.99,4.62-3.33,5.1-6.14.08-.45.12-.9.12-1.35,0-2.14-.87-4.21-2.43-5.72-16.24-15.57-25.69-37.61-25.58-60.19,0-15.95,4.52-31.47,13.05-44.86,8.31-13.03,20.02-23.5,33.89-30.28,3.51-1.71,7.18-3.19,10.89-4.39.29-.09.58-.19.87-.27.73-3.81,3.5-7.13,7.57-8.31,5.08-1.47,10.58,1.09,12.73,5.92,2.54,5.71-.29,12.29-6.06,14.42-4.45,1.65-9.29.15-12.09-3.37-3.41,1.09-6.77,2.44-10,4.01-25.87,12.64-41.95,38.36-41.95,67.12,0,19.72,7.95,38.84,21.82,52.75,2.07,2.08,5.18,2.75,7.94,1.72,1.27-.47,2.36-1.25,3.19-2.26.84-1,1.41-2.22,1.63-3.55l1.97-11.55c-3.57-2.45-5.48-6.96-4.32-11.52,1.3-5.07,6.2-8.5,11.42-7.97,6.24.63,10.55,6.38,9.5,12.46-.73,4.28-3.89,7.52-7.83,8.56l-1.95,11.38c-.46,2.75.56,5.53,2.71,7.31,1.42,1.18,3.18,1.79,4.96,1.79.91,0,1.83-.16,2.71-.49l10.98-4.06c.3-4.05,2.91-7.75,6.96-9.25,5.78-2.14,12.23,1.03,14,7.05,1.48,5.03-.99,10.48-5.75,12.69Z"/>
    <path class="cls-1" d="m216.18,224.76c-4.27,1.99-9.06.93-12.13-2.14l-10.76,3.98c-2.68.99-4.62,3.33-5.1,6.15-.08.45-.12.9-.12,1.35,0,2.13.86,4.21,2.42,5.71,7.81,7.51,14.05,16.41,18.44,26.32,4.74,10.7,7.15,22.09,7.15,33.87,0,15.95-4.51,31.47-13.05,44.86-8.31,13.04-20.03,23.51-33.9,30.28-3.51,1.72-7.17,3.19-10.88,4.39-.29.09-.59.19-.88.28-.72,3.81-3.5,7.13-7.57,8.31-5.08,1.47-10.57-1.08-12.73-5.92-2.54-5.71.29-12.29,6.06-14.42,4.45-1.65,9.29-.15,12.09,3.36h0c3.4-1.08,6.77-2.44,9.99-4.01,25.88-12.64,41.95-38.36,41.95-67.13,0-19.71-7.95-38.84-21.82-52.74-2.08-2.08-5.19-2.75-7.95-1.72-1.26.47-2.36,1.25-3.19,2.26-.83,1-1.4,2.22-1.63,3.54l-1.97,11.55c3.57,2.44,5.48,6.95,4.32,11.51-1.3,5.08-6.2,8.5-11.41,7.98-6.25-.63-10.55-6.39-9.51-12.47.73-4.27,3.9-7.52,7.83-8.55l1.94-11.39c.46-2.74-.56-5.52-2.71-7.3-1.42-1.18-3.19-1.8-4.98-1.8-.9,0-1.82.16-2.7.49l-10.98,4.07c-.32,4.32-3.26,8.23-7.78,9.51-5.07,1.44-10.54-1.13-12.67-5.95-2.54-5.71.29-12.27,6.06-14.41,4.05-1.5,8.44-.39,11.3,2.48l10.98-4.06c2.61-.97,4.51-3.26,4.98-6,.08-.43.11-.87.11-1.3,0-2.3-1.01-4.5-2.81-6l-9.05-7.51c-3.9,1.87-8.76,1.29-12.13-1.99-3.78-3.67-4.29-9.69-1.19-13.95,3.68-5.05,10.79-5.88,15.51-1.96,3.33,2.76,4.56,7.11,3.5,11.04l9.05,7.51c2.14,1.78,5.07,2.27,7.68,1.31,1.31-.48,2.43-1.3,3.29-2.34.86-1.04,1.45-2.29,1.69-3.67l1.96-11.52c-3.59-2.44-5.52-6.96-4.36-11.53,1.29-5.09,6.2-8.52,11.42-8,6.24.63,10.55,6.38,9.51,12.47-.73,4.25-3.87,7.49-7.78,8.54l-1.97,11.55c-.47,2.75.56,5.53,2.71,7.31,1.42,1.18,3.18,1.79,4.96,1.79.91,0,1.82-.16,2.71-.49l10.87-4.01c.31-4.05,2.91-7.75,6.96-9.25,5.78-2.14,12.23,1.03,14,7.05,1.48,5.03-.99,10.49-5.75,12.7Z"/>
  </g>
</svg>