<?xml version="1.0" encoding="UTF-8"?>
<svg id="Layer_1" data-name="Layer 1" xmlns="http://www.w3.org/2000/svg" viewBox="0 0 841.89 595.28">
  <defs>
    <style>
      .cls-1 {
        font-family: AtkinsonHyperlegible-Bold, 'Atkinson Hyperlegible';
        font-weight: 700;
      }

      .cls-1, .cls-2 {
        fill: #231f20;
      }

      .cls-3 {
        font-size: 92.36px;
      }

      .cls-4 {
        font-family: AtkinsonHyperlegible-Regular, 'Atkinson Hyperlegible';
      }

      .cls-4, .cls-5 {
        fill: #d18e29;
      }
    </style>
  </defs>
  <path class="cls-2" d="m212.77,212.38c-22.77-22.77-53.05-35.32-85.26-35.32s-62.48,12.54-85.26,35.32c-22.77,22.77-35.32,53.05-35.32,85.26s12.54,62.48,35.32,85.26c22.77,22.77,53.05,35.32,85.26,35.32s62.49-12.54,85.26-35.32c22.77-22.78,35.32-53.05,35.32-85.26s-12.54-62.49-35.32-85.26Zm-85.26,199.9c-63.21,0-114.64-51.43-114.64-114.64s51.43-114.65,114.64-114.65,114.65,51.43,114.65,114.65-51.43,114.64-114.65,114.64Z"/>
  <path class="cls-2" d="m127.51,182.99c-63.21,0-114.64,51.43-114.64,114.65s51.43,114.64,114.64,114.64,114.65-51.43,114.65-114.64-51.43-114.65-114.65-114.65Zm-2.46,157.52c-2.92,1.36-6.2.63-8.29-1.46l-7.51,2.78c-1.79.66-3.08,2.22-3.4,4.1-.05.3-.08.6-.08.9,0,1.57.69,3.07,1.92,4.09l6.19,5.13c2.67-1.28,5.99-.88,8.3,1.35,2.45,2.38,2.82,6.78.81,9.54-2.51,3.45-7.37,4.02-10.61,1.34-2.27-1.89-3.11-4.86-2.4-7.54l-6.19-5.13c-1.46-1.22-3.46-1.56-5.25-.9-.89.33-1.67.89-2.25,1.59-.59.71-.99,1.57-1.15,2.51l-1.34,7.88c2.45,1.67,3.78,4.75,2.98,7.88-.88,3.48-4.24,5.82-7.81,5.47-4.27-.43-7.21-4.37-6.5-8.52.49-2.91,2.64-5.12,5.31-5.84l1.35-7.9c.32-1.88-.38-3.78-1.85-4.99-.97-.81-2.18-1.23-3.41-1.23-.62,0-1.25.11-1.85.33l-7.43,2.75c-.22,2.95-2.23,5.63-5.32,6.5-3.47.98-7.21-.77-8.67-4.07-1.73-3.9.21-8.39,4.15-9.85,2.78-1.03,5.77-.26,7.73,1.7l7.35-2.72c1.83-.68,3.16-2.27,3.48-4.2.05-.31.08-.62.08-.93,0-1.46-.59-2.88-1.66-3.91-11.1-10.64-17.57-25.71-17.49-41.15,0-10.91,3.09-21.51,8.93-30.67,5.68-8.91,13.69-16.07,23.17-20.7,2.4-1.17,4.91-2.18,7.44-3,.2-.06.4-.13.6-.19.5-2.61,2.39-4.88,5.18-5.68,3.47-1,7.23.75,8.7,4.05,1.74,3.9-.2,8.4-4.14,9.86-3.04,1.13-6.35.1-8.27-2.31-2.33.75-4.63,1.67-6.84,2.74-17.69,8.64-28.68,26.23-28.68,45.9,0,13.48,5.44,26.56,14.92,36.07,1.42,1.42,3.54,1.88,5.43,1.18.87-.32,1.61-.86,2.18-1.54.57-.68.96-1.52,1.12-2.43l1.35-7.89c-2.44-1.68-3.75-4.76-2.95-7.88.89-3.47,4.24-5.81,7.81-5.45,4.27.43,7.21,4.36,6.5,8.52-.5,2.92-2.66,5.14-5.35,5.85l-1.33,7.78c-.32,1.88.39,3.78,1.85,5,.97.8,2.17,1.23,3.39,1.23.62,0,1.25-.11,1.86-.33l7.51-2.78c.21-2.77,1.99-5.3,4.76-6.32,3.96-1.46,8.36.7,9.58,4.82,1.01,3.44-.68,7.16-3.93,8.68Zm65.77-92.7c-2.92,1.36-6.2.63-8.29-1.46l-7.35,2.72c-1.83.68-3.16,2.28-3.48,4.2-.05.31-.08.62-.08.93,0,1.46.59,2.88,1.65,3.91,5.34,5.13,9.61,11.22,12.61,17.99,3.24,7.31,4.89,15.1,4.89,23.16,0,10.91-3.08,21.51-8.92,30.67-5.68,8.91-13.69,16.07-23.18,20.7-2.4,1.17-4.9,2.18-7.44,3-.2.06-.4.13-.6.19-.49,2.61-2.39,4.88-5.18,5.68-3.47,1-7.23-.74-8.7-4.04-1.74-3.91.2-8.4,4.15-9.86,3.04-1.13,6.35-.1,8.26,2.3h0c2.33-.74,4.63-1.67,6.83-2.74,17.69-8.64,28.68-26.23,28.68-45.9,0-13.48-5.44-26.55-14.92-36.06-1.42-1.42-3.55-1.88-5.44-1.18-.86.32-1.61.86-2.18,1.54-.57.68-.96,1.52-1.12,2.42l-1.35,7.9c2.44,1.67,3.75,4.75,2.95,7.87-.89,3.47-4.24,5.81-7.8,5.46-4.27-.43-7.21-4.37-6.5-8.52.5-2.92,2.66-5.14,5.36-5.85l1.33-7.79c.32-1.87-.39-3.78-1.85-4.99-.97-.81-2.18-1.23-3.41-1.23-.62,0-1.24.11-1.85.33l-7.51,2.78c-.22,2.95-2.23,5.63-5.32,6.5-3.47.98-7.21-.77-8.67-4.07-1.73-3.9.2-8.39,4.15-9.85,2.77-1.03,5.77-.26,7.72,1.7l7.51-2.78c1.79-.66,3.08-2.23,3.41-4.1.05-.3.07-.59.07-.89,0-1.57-.69-3.08-1.92-4.1l-6.19-5.13c-2.66,1.28-5.99.88-8.3-1.36-2.59-2.51-2.93-6.63-.81-9.54,2.52-3.45,7.38-4.02,10.61-1.34,2.28,1.89,3.11,4.86,2.4,7.55l6.19,5.13c1.46,1.22,3.46,1.55,5.25.9.89-.33,1.66-.89,2.25-1.6.59-.71.99-1.57,1.15-2.51l1.34-7.88c-2.45-1.67-3.78-4.76-2.98-7.88.88-3.48,4.24-5.83,7.81-5.47,4.27.43,7.21,4.36,6.5,8.52-.5,2.91-2.64,5.12-5.32,5.84l-1.35,7.89c-.32,1.88.39,3.78,1.85,5,.97.8,2.17,1.23,3.39,1.23.62,0,1.25-.11,1.85-.33l7.43-2.74c.21-2.77,1.99-5.3,4.76-6.32,3.96-1.46,8.36.7,9.58,4.82,1.01,3.44-.68,7.17-3.93,8.68Z"/>
  <path class="cls-5" d="m125.04,340.51c-2.92,1.36-6.2.63-8.29-1.46l-7.51,2.78c-1.79.66-3.08,2.22-3.4,4.1-.05.3-.08.6-.08.9,0,1.57.69,3.07,1.92,4.09l6.19,5.13c2.67-1.28,5.99-.88,8.3,1.35,2.45,2.38,2.82,6.78.81,9.54-2.51,3.45-7.37,4.02-10.61,1.34-2.27-1.89-3.11-4.86-2.4-7.54l-6.19-5.13c-1.46-1.22-3.46-1.56-5.25-.9-.89.33-1.67.89-2.25,1.59-.59.71-.99,1.57-1.15,2.51l-1.34,7.88c2.45,1.67,3.78,4.75,2.98,7.88-.88,3.48-4.24,5.82-7.81,5.47-4.27-.43-7.21-4.37-6.5-8.52.49-2.91,2.64-5.12,5.31-5.84l1.35-7.9c.32-1.88-.38-3.78-1.85-4.99-.97-.81-2.18-1.23-3.41-1.23-.62,0-1.25.11-1.85.33l-7.43,2.75c-.22,2.95-2.23,5.63-5.32,6.5-3.47.98-7.21-.77-8.67-4.07-1.73-3.9.21-8.39,4.15-9.85,2.78-1.03,5.77-.26,7.73,1.7l7.35-2.72c1.83-.68,3.16-2.27,3.48-4.2.05-.31.08-.62.08-.93,0-1.46-.59-2.88-1.66-3.91-11.1-10.64-17.57-25.71-17.49-41.15,0-10.91,3.09-21.51,8.93-30.67,5.68-8.91,13.69-16.07,23.17-20.7,2.4-1.17,4.91-2.18,7.44-3,.2-.06.4-.13.6-.19.5-2.61,2.39-4.88,5.18-5.68,3.47-1,7.23.75,8.7,4.05,1.74,3.9-.2,8.4-4.14,9.86-3.04,1.13-6.35.1-8.27-2.31-2.33.75-4.63,1.67-6.84,2.74-17.69,8.64-28.68,26.23-28.68,45.9,0,13.48,5.44,26.56,14.92,36.07,1.42,1.42,3.54,1.88,5.43,1.18.87-.32,1.61-.86,2.18-1.54.57-.68.96-1.52,1.12-2.43l1.35-7.89c-2.44-1.68-3.75-4.76-2.95-7.88.89-3.47,4.24-5.81,7.81-5.45,4.27.43,7.21,4.36,6.5,8.52-.5,2.92-2.66,5.14-5.35,5.85l-1.33,7.78c-.32,1.88.39,3.78,1.85,5,.97.8,2.17,1.23,3.39,1.23.62,0,1.25-.11,1.86-.33l7.51-2.78c.21-2.77,1.99-5.3,4.76-6.32,3.96-1.46,8.36.7,9.58,4.82,1.01,3.44-.68,7.16-3.93,8.68Z"/>
  <path class="cls-5" d="m190.81,247.81c-2.92,1.36-6.2.63-8.29-1.46l-7.35,2.72c-1.83.68-3.16,2.28-3.48,4.2-.05.31-.08.62-.08.93,0,1.46.59,2.88,1.65,3.91,5.34,5.13,9.61,11.22,12.61,17.99,3.24,7.31,4.89,15.1,4.89,23.16,0,10.91-3.08,21.51-8.92,30.67-5.68,8.91-13.69,16.07-23.18,20.7-2.4,1.17-4.9,2.18-7.44,3-.2.06-.4.13-.6.19-.49,2.61-2.39,4.88-5.18,5.68-3.47,1-7.23-.74-8.7-4.04-1.74-3.91.2-8.4,4.15-9.86,3.04-1.13,6.35-.1,8.26,2.3h0c2.33-.74,4.63-1.67,6.83-2.74,17.69-8.64,28.68-26.23,28.68-45.9,0-13.48-5.44-26.55-14.92-36.06-1.42-1.42-3.55-1.88-5.44-1.18-.86.32-1.61.86-2.18,1.54-.57.68-.96,1.52-1.12,2.42l-1.35,7.9c2.44,1.67,3.75,4.75,2.95,7.87-.89,3.47-4.24,5.81-7.8,5.46-4.27-.43-7.21-4.37-6.5-8.52.5-2.92,2.66-5.14,5.36-5.85l1.33-7.79c.32-1.87-.39-3.78-1.85-4.99-.97-.81-2.18-1.23-3.41-1.23-.62,0-1.24.11-1.85.33l-7.51,2.78c-.22,2.95-2.23,5.63-5.32,6.5-3.47.98-7.21-.77-8.67-4.07-1.73-3.9.2-8.39,4.15-9.85,2.77-1.03,5.77-.26,7.72,1.7l7.51-2.78c1.79-.66,3.08-2.23,3.41-4.1.05-.3.07-.59.07-.89,0-1.57-.69-3.08-1.92-4.1l-6.19-5.13c-2.66,1.28-5.99.88-8.3-1.36-2.59-2.51-2.93-6.63-.81-9.54,2.52-3.45,7.38-4.02,10.61-1.34,2.28,1.89,3.11,4.86,2.4,7.55l6.19,5.13c1.46,1.22,3.46,1.55,5.25.9.89-.33,1.66-.89,2.25-1.6.59-.71.99-1.57,1.15-2.51l1.34-7.88c-2.45-1.67-3.78-4.76-2.98-7.88.88-3.48,4.24-5.83,7.81-5.47,4.27.43,7.21,4.36,6.5,8.52-.5,2.91-2.64,5.12-5.32,5.84l-1.35,7.89c-.32,1.88.39,3.78,1.85,5,.97.8,2.17,1.23,3.39,1.23.62,0,1.25-.11,1.85-.33l7.43-2.74c.21-2.77,1.99-5.3,4.76-6.32,3.96-1.46,8.36.7,9.58,4.82,1.01,3.44-.68,7.17-3.93,8.68Z"/>
  <text class="cls-3" transform="translate(266.99 286.56)"><tspan class="cls-1"><tspan x="0" y="0">neuromatch</tspan></tspan><tspan class="cls-4"><tspan x="0" y="76">community</tspan></tspan></text>
</svg>