<?xml version="1.0" encoding="UTF-8"?>
<svg id="Layer_1" data-name="Layer 1" xmlns="http://www.w3.org/2000/svg" viewBox="0 0 841.89 595.28">
  <defs>
    <style>
      .cls-1 {
        font-family: AtkinsonHyperlegible-Bold, 'Atkinson Hyperlegible';
        font-weight: 700;
      }

      .cls-1, .cls-2 {
        fill: #231f20;
      }

      .cls-3 {
        font-size: 83.07px;
      }

      .cls-4, .cls-5 {
        fill: #45469c;
      }

      .cls-5 {
        font-family: AtkinsonHyperlegible-Regular, 'Atkinson Hyperlegible';
      }
    </style>
  </defs>
  <path class="cls-2" d="m236.96,220.95c-20.48-20.48-47.72-31.76-76.69-31.76s-56.2,11.28-76.68,31.76c-20.48,20.48-31.76,47.72-31.76,76.69s11.28,56.2,31.76,76.69c20.48,20.48,47.72,31.76,76.68,31.76s56.21-11.28,76.69-31.76c20.48-20.49,31.76-47.72,31.76-76.69s-11.28-56.21-31.76-76.69Zm-76.69,179.81c-56.86,0-103.12-46.26-103.12-103.12s46.26-103.12,103.12-103.12,103.12,46.26,103.12,103.12-46.26,103.12-103.12,103.12Z"/>
  <path class="cls-2" d="m160.27,194.51c-56.86,0-103.12,46.26-103.12,103.12s46.26,103.12,103.12,103.12,103.12-46.26,103.12-103.12-46.26-103.12-103.12-103.12Zm-2.22,141.68c-2.63,1.22-5.57.57-7.46-1.32l-6.75,2.5c-1.61.59-2.77,2-3.06,3.69-.05.27-.07.54-.07.81,0,1.41.62,2.76,1.73,3.68l5.56,4.62c2.4-1.16,5.39-.79,7.46,1.22,2.21,2.14,2.54,6.1.73,8.58-2.26,3.11-6.63,3.62-9.54,1.2-2.05-1.7-2.8-4.38-2.15-6.78l-5.56-4.62c-1.32-1.09-3.12-1.4-4.72-.81-.8.29-1.5.8-2.03,1.43-.53.64-.89,1.41-1.04,2.25l-1.21,7.09c2.21,1.5,3.4,4.28,2.68,7.09-.79,3.13-3.81,5.24-7.02,4.92-3.84-.39-6.49-3.93-5.85-7.67.44-2.62,2.38-4.6,4.78-5.25l1.21-7.11c.29-1.69-.34-3.4-1.66-4.49-.88-.73-1.96-1.11-3.06-1.11-.56,0-1.12.1-1.66.3l-6.68,2.47c-.2,2.65-2,5.07-4.78,5.85-3.12.88-6.48-.69-7.8-3.66-1.56-3.51.19-7.55,3.73-8.86,2.5-.92,5.19-.24,6.95,1.53l6.62-2.45c1.65-.61,2.84-2.05,3.13-3.78.05-.28.07-.56.07-.83,0-1.32-.53-2.59-1.49-3.52-9.99-9.57-15.8-23.13-15.73-37.02,0-9.81,2.78-19.35,8.03-27.59,5.11-8.01,12.31-14.45,20.84-18.62,2.16-1.05,4.41-1.96,6.7-2.7.18-.06.36-.11.54-.17.45-2.34,2.15-4.38,4.66-5.11,3.12-.9,6.51.67,7.83,3.64,1.56,3.51-.18,7.56-3.72,8.87-2.73,1.01-5.71.09-7.44-2.07-2.1.67-4.17,1.5-6.15,2.47-15.91,7.77-25.8,23.59-25.8,41.28,0,12.13,4.89,23.89,13.42,32.44,1.27,1.28,3.19,1.69,4.88,1.06.78-.29,1.45-.77,1.96-1.39.51-.61.87-1.36,1-2.18l1.21-7.1c-2.19-1.51-3.37-4.28-2.65-7.09.8-3.12,3.81-5.23,7.02-4.9,3.84.39,6.49,3.92,5.85,7.66-.45,2.63-2.39,4.62-4.81,5.26l-1.2,7c-.29,1.69.35,3.4,1.66,4.49.87.72,1.95,1.1,3.05,1.1.56,0,1.13-.1,1.67-.3l6.75-2.5c.19-2.49,1.79-4.77,4.28-5.69,3.56-1.32,7.52.63,8.61,4.34.91,3.09-.61,6.44-3.53,7.8Zm59.15-83.38c-2.63,1.22-5.57.57-7.46-1.32l-6.62,2.45c-1.65.61-2.84,2.05-3.13,3.78-.05.28-.07.56-.07.83,0,1.31.53,2.59,1.49,3.51,4.8,4.62,8.64,10.09,11.34,16.18,2.92,6.58,4.39,13.58,4.39,20.83,0,9.81-2.77,19.35-8.02,27.59-5.11,8.02-12.32,14.46-20.85,18.62-2.16,1.06-4.41,1.96-6.69,2.7-.18.06-.36.11-.54.17-.44,2.34-2.15,4.38-4.66,5.11-3.12.9-6.5-.67-7.83-3.64-1.56-3.51.18-7.56,3.73-8.87,2.73-1.01,5.71-.09,7.43,2.07h0c2.09-.67,4.17-1.5,6.14-2.46,15.91-7.77,25.8-23.59,25.8-41.29,0-12.12-4.89-23.88-13.42-32.44-1.28-1.28-3.19-1.69-4.89-1.06-.78.29-1.45.77-1.96,1.39-.51.61-.86,1.36-1,2.18l-1.21,7.11c2.2,1.5,3.37,4.28,2.65,7.08-.8,3.12-3.81,5.23-7.02,4.91-3.84-.39-6.49-3.93-5.85-7.67.45-2.63,2.4-4.62,4.82-5.26l1.19-7.01c.29-1.68-.35-3.4-1.66-4.49-.88-.73-1.96-1.11-3.06-1.11-.56,0-1.12.1-1.66.3l-6.75,2.5c-.2,2.65-2,5.06-4.78,5.85-3.12.88-6.48-.69-7.79-3.66-1.56-3.51.18-7.55,3.73-8.86,2.49-.92,5.19-.24,6.95,1.53l6.75-2.5c1.61-.59,2.77-2,3.06-3.69.05-.27.07-.53.07-.8,0-1.41-.62-2.77-1.73-3.69l-5.56-4.62c-2.4,1.15-5.39.79-7.46-1.22-2.33-2.26-2.64-5.96-.73-8.58,2.26-3.11,6.63-3.61,9.54-1.2,2.05,1.7,2.8,4.38,2.15,6.79l5.56,4.62c1.32,1.09,3.12,1.4,4.72.81.8-.29,1.49-.8,2.02-1.44.53-.64.89-1.41,1.04-2.25l1.21-7.09c-2.21-1.5-3.4-4.28-2.68-7.09.79-3.13,3.81-5.24,7.02-4.92,3.84.39,6.49,3.92,5.85,7.67-.45,2.62-2.38,4.6-4.78,5.25l-1.21,7.1c-.29,1.69.35,3.4,1.66,4.49.87.72,1.95,1.1,3.05,1.1.56,0,1.12-.1,1.66-.3l6.68-2.47c.19-2.49,1.79-4.77,4.28-5.69,3.56-1.32,7.52.63,8.61,4.33.91,3.1-.61,6.45-3.53,7.81Z"/>
  <path class="cls-4" d="m158.06,336.2c-2.63,1.22-5.57.57-7.46-1.32l-6.75,2.5c-1.61.59-2.77,2-3.06,3.69-.05.27-.07.54-.07.81,0,1.41.62,2.76,1.73,3.68l5.56,4.62c2.4-1.16,5.39-.79,7.46,1.22,2.21,2.14,2.54,6.1.73,8.58-2.26,3.11-6.63,3.62-9.54,1.2-2.05-1.7-2.8-4.38-2.15-6.78l-5.56-4.62c-1.32-1.09-3.12-1.4-4.72-.81-.8.29-1.5.8-2.03,1.43-.53.64-.89,1.41-1.04,2.25l-1.21,7.09c2.21,1.5,3.4,4.28,2.68,7.09-.79,3.13-3.81,5.24-7.02,4.92-3.84-.39-6.49-3.93-5.85-7.67.44-2.62,2.38-4.6,4.78-5.25l1.21-7.11c.29-1.69-.34-3.4-1.66-4.49-.88-.73-1.96-1.11-3.06-1.11-.56,0-1.12.1-1.66.3l-6.68,2.47c-.2,2.65-2,5.07-4.78,5.85-3.12.88-6.48-.69-7.8-3.66-1.56-3.51.19-7.55,3.73-8.86,2.5-.92,5.19-.24,6.95,1.53l6.62-2.45c1.65-.61,2.84-2.05,3.13-3.78.05-.28.07-.56.07-.83,0-1.32-.53-2.59-1.49-3.52-9.99-9.57-15.8-23.13-15.73-37.02,0-9.81,2.78-19.35,8.03-27.59,5.11-8.01,12.31-14.45,20.84-18.62,2.16-1.05,4.41-1.96,6.7-2.7.18-.06.36-.11.54-.17.45-2.34,2.15-4.38,4.66-5.11,3.12-.9,6.51.67,7.83,3.64,1.56,3.51-.18,7.56-3.72,8.87-2.73,1.01-5.71.09-7.44-2.07-2.1.67-4.17,1.5-6.15,2.47-15.91,7.77-25.8,23.59-25.8,41.28,0,12.13,4.89,23.89,13.42,32.44,1.27,1.28,3.19,1.69,4.88,1.06.78-.29,1.45-.77,1.96-1.39.51-.61.87-1.36,1-2.18l1.21-7.1c-2.19-1.51-3.37-4.28-2.65-7.09.8-3.12,3.81-5.23,7.02-4.9,3.84.39,6.49,3.92,5.85,7.66-.45,2.63-2.39,4.62-4.81,5.26l-1.2,7c-.29,1.69.35,3.4,1.66,4.49.87.72,1.95,1.1,3.05,1.1.56,0,1.13-.1,1.67-.3l6.75-2.5c.19-2.49,1.79-4.77,4.28-5.69,3.56-1.32,7.52.63,8.61,4.34.91,3.09-.61,6.44-3.53,7.8Z"/>
  <path class="cls-4" d="m217.21,252.82c-2.63,1.22-5.57.57-7.46-1.32l-6.62,2.45c-1.65.61-2.84,2.05-3.13,3.78-.05.28-.07.56-.07.83,0,1.31.53,2.59,1.49,3.51,4.8,4.62,8.64,10.09,11.34,16.18,2.92,6.58,4.39,13.58,4.39,20.83,0,9.81-2.77,19.35-8.02,27.59-5.11,8.02-12.32,14.46-20.85,18.62-2.16,1.06-4.41,1.96-6.69,2.7-.18.06-.36.11-.54.17-.44,2.34-2.15,4.38-4.66,5.11-3.12.9-6.5-.67-7.83-3.64-1.56-3.51.18-7.56,3.73-8.87,2.73-1.01,5.71-.09,7.43,2.07h0c2.09-.67,4.17-1.5,6.14-2.46,15.91-7.77,25.8-23.59,25.8-41.29,0-12.12-4.89-23.88-13.42-32.44-1.28-1.28-3.19-1.69-4.89-1.06-.78.29-1.45.77-1.96,1.39-.51.61-.86,1.36-1,2.18l-1.21,7.11c2.2,1.5,3.37,4.28,2.65,7.08-.8,3.12-3.81,5.23-7.02,4.91-3.84-.39-6.49-3.93-5.85-7.67.45-2.63,2.4-4.62,4.82-5.26l1.19-7.01c.29-1.68-.35-3.4-1.66-4.49-.88-.73-1.96-1.11-3.06-1.11-.56,0-1.12.1-1.66.3l-6.75,2.5c-.2,2.65-2,5.06-4.78,5.85-3.12.88-6.48-.69-7.79-3.66-1.56-3.51.18-7.55,3.73-8.86,2.49-.92,5.19-.24,6.95,1.53l6.75-2.5c1.61-.59,2.77-2,3.06-3.69.05-.27.07-.53.07-.8,0-1.41-.62-2.77-1.73-3.69l-5.56-4.62c-2.4,1.15-5.39.79-7.46-1.22-2.33-2.26-2.64-5.96-.73-8.58,2.26-3.11,6.63-3.61,9.54-1.2,2.05,1.7,2.8,4.38,2.15,6.79l5.56,4.62c1.32,1.09,3.12,1.4,4.72.81.8-.29,1.49-.8,2.02-1.44.53-.64.89-1.41,1.04-2.25l1.21-7.09c-2.21-1.5-3.4-4.28-2.68-7.09.79-3.13,3.81-5.24,7.02-4.92,3.84.39,6.49,3.92,5.85,7.67-.45,2.62-2.38,4.6-4.78,5.25l-1.21,7.1c-.29,1.69.35,3.4,1.66,4.49.87.72,1.95,1.1,3.05,1.1.56,0,1.12-.1,1.66-.3l6.68-2.47c.19-2.49,1.79-4.77,4.28-5.69,3.56-1.32,7.52.63,8.61,4.33.91,3.1-.61,6.45-3.53,7.81Z"/>
  <text class="cls-3" transform="translate(285.74 287.67)"><tspan class="cls-1"><tspan x="0" y="0">neuromatch</tspan></tspan><tspan class="cls-5"><tspan x="0" y="68.36">data analytics</tspan></tspan></text>
</svg>