<?xml version="1.0" encoding="UTF-8"?>
<svg id="Layer_1" data-name="Layer 1" xmlns="http://www.w3.org/2000/svg" viewBox="0 0 841.89 595.28">
  <defs>
    <style>
      .cls-1 {
        font-family: AtkinsonHyperlegible-Bold, 'Atkinson Hyperlegible';
        font-weight: 700;
      }

      .cls-1, .cls-2 {
        fill: #231f20;
      }

      .cls-3, .cls-4 {
        fill: #078dc0;
      }

      .cls-5 {
        font-size: 80.51px;
      }

      .cls-4 {
        font-family: AtkinsonHyperlegible-Regular, 'Atkinson Hyperlegible';
      }
    </style>
  </defs>
  <path class="cls-2" d="m203.79,223.31c-19.85-19.85-46.24-30.79-74.32-30.79s-54.47,10.93-74.32,30.79c-19.85,19.85-30.79,46.25-30.79,74.32s10.93,54.47,30.79,74.32c19.85,19.85,46.24,30.78,74.32,30.78s54.47-10.93,74.32-30.78c19.85-19.86,30.78-46.25,30.78-74.32s-10.93-54.47-30.78-74.32Zm-74.32,174.26c-55.1,0-99.94-44.83-99.94-99.94s44.83-99.94,99.94-99.94,99.94,44.83,99.94,99.94-44.83,99.94-99.94,99.94Z"/>
  <path class="cls-2" d="m129.47,197.7c-55.1,0-99.94,44.83-99.94,99.94s44.83,99.94,99.94,99.94,99.94-44.83,99.94-99.94-44.83-99.94-99.94-99.94Zm-2.15,137.31c-2.55,1.18-5.4.55-7.23-1.28l-6.55,2.42c-1.56.58-2.69,1.94-2.96,3.57-.05.26-.07.53-.07.79,0,1.36.6,2.68,1.68,3.57l5.39,4.48c2.33-1.12,5.22-.77,7.23,1.18,2.14,2.08,2.46,5.91.71,8.32-2.19,3.01-6.43,3.51-9.25,1.17-1.98-1.65-2.71-4.24-2.09-6.57l-5.39-4.48c-1.28-1.06-3.02-1.36-4.57-.78-.78.29-1.45.77-1.96,1.39-.51.62-.86,1.37-1,2.18l-1.17,6.87c2.14,1.45,3.3,4.14,2.6,6.87-.77,3.03-3.7,5.07-6.81,4.77-3.72-.38-6.29-3.81-5.66-7.43.43-2.54,2.3-4.46,4.63-5.09l1.18-6.89c.28-1.64-.33-3.3-1.61-4.35-.85-.71-1.9-1.07-2.97-1.07-.54,0-1.09.1-1.61.29l-6.48,2.4c-.19,2.57-1.94,4.91-4.64,5.67-3.02.86-6.28-.67-7.56-3.54-1.51-3.4.18-7.31,3.61-8.59,2.42-.89,5.03-.23,6.74,1.48l6.41-2.37c1.59-.59,2.75-1.98,3.04-3.66.05-.27.07-.54.07-.81,0-1.28-.52-2.51-1.45-3.41-9.68-9.28-15.31-22.41-15.25-35.87,0-9.51,2.69-18.75,7.78-26.74,4.95-7.77,11.93-14.01,20.2-18.05,2.09-1.02,4.28-1.9,6.49-2.62.17-.06.35-.11.52-.16.43-2.27,2.08-4.25,4.51-4.95,3.03-.88,6.31.65,7.59,3.53,1.52,3.4-.17,7.32-3.61,8.6-2.65.98-5.54.09-7.21-2.01-2.03.65-4.04,1.45-5.96,2.39-15.42,7.53-25,22.86-25,40.01,0,11.75,4.74,23.15,13.01,31.44,1.24,1.24,3.09,1.64,4.73,1.03.76-.28,1.41-.75,1.9-1.35.5-.59.84-1.32.97-2.12l1.18-6.88c-2.12-1.46-3.27-4.15-2.57-6.87.77-3.02,3.7-5.07,6.81-4.75,3.72.37,6.29,3.8,5.66,7.43-.43,2.55-2.32,4.48-4.66,5.1l-1.16,6.78c-.28,1.64.34,3.3,1.61,4.36.84.7,1.89,1.07,2.96,1.07.54,0,1.09-.1,1.62-.29l6.55-2.42c.18-2.42,1.73-4.62,4.15-5.51,3.45-1.28,7.29.61,8.35,4.2.88,3-.59,6.25-3.42,7.56Zm57.33-80.81c-2.54,1.18-5.4.55-7.23-1.28l-6.41,2.37c-1.59.59-2.75,1.99-3.04,3.66-.05.27-.07.54-.07.81,0,1.27.51,2.51,1.44,3.41,4.66,4.48,8.37,9.78,10.99,15.69,2.83,6.37,4.26,13.16,4.26,20.19,0,9.51-2.69,18.75-7.78,26.74-4.95,7.77-11.94,14.01-20.2,18.05-2.09,1.02-4.27,1.9-6.49,2.62-.18.06-.35.11-.53.17-.43,2.27-2.08,4.25-4.51,4.95-3.03.88-6.3-.65-7.59-3.53-1.52-3.41.18-7.32,3.61-8.6,2.65-.98,5.54-.09,7.2,2.01h0c2.03-.65,4.04-1.45,5.96-2.39,15.42-7.53,25-22.86,25-40.01,0-11.75-4.74-23.15-13-31.43-1.24-1.24-3.09-1.64-4.74-1.03-.75.28-1.41.75-1.9,1.35-.49.59-.83,1.32-.97,2.11l-1.18,6.89c2.13,1.46,3.27,4.14,2.57,6.86-.77,3.03-3.7,5.07-6.8,4.76-3.72-.37-6.29-3.81-5.67-7.43.43-2.54,2.32-4.48,4.67-5.1l1.16-6.79c.28-1.63-.34-3.29-1.61-4.35-.85-.71-1.9-1.07-2.97-1.07-.54,0-1.08.1-1.61.29l-6.55,2.42c-.19,2.57-1.94,4.9-4.64,5.67-3.02.86-6.28-.67-7.55-3.54-1.51-3.4.18-7.31,3.61-8.59,2.42-.89,5.03-.23,6.73,1.48l6.55-2.42c1.56-.58,2.69-1.94,2.97-3.58.05-.26.06-.52.06-.77,0-1.37-.6-2.68-1.68-3.58l-5.39-4.48c-2.32,1.12-5.22.77-7.23-1.18-2.25-2.19-2.56-5.78-.71-8.32,2.19-3.01,6.43-3.5,9.25-1.17,1.99,1.65,2.71,4.24,2.09,6.58l5.39,4.48c1.28,1.06,3.02,1.36,4.58.78.78-.29,1.45-.77,1.96-1.39.51-.62.87-1.36,1-2.18l1.17-6.87c-2.14-1.46-3.29-4.15-2.6-6.87.77-3.03,3.7-5.08,6.81-4.77,3.72.37,6.29,3.8,5.67,7.43-.43,2.54-2.3,4.46-4.64,5.09l-1.18,6.88c-.28,1.64.34,3.3,1.61,4.36.84.7,1.89,1.07,2.96,1.07.54,0,1.09-.1,1.61-.29l6.48-2.39c.18-2.42,1.73-4.62,4.15-5.51,3.45-1.28,7.29.61,8.35,4.2.88,3-.59,6.25-3.42,7.57Z"/>
  <path class="cls-3" d="m127.32,335.01c-2.55,1.18-5.4.55-7.23-1.28l-6.55,2.42c-1.56.58-2.69,1.94-2.96,3.57-.05.26-.07.53-.07.79,0,1.36.6,2.68,1.68,3.57l5.39,4.48c2.33-1.12,5.22-.77,7.23,1.18,2.14,2.08,2.46,5.91.71,8.32-2.19,3.01-6.43,3.51-9.25,1.17-1.98-1.65-2.71-4.24-2.09-6.57l-5.39-4.48c-1.28-1.06-3.02-1.36-4.57-.78-.78.29-1.45.77-1.96,1.39-.51.62-.86,1.37-1,2.18l-1.17,6.87c2.14,1.45,3.3,4.14,2.6,6.87-.77,3.03-3.7,5.07-6.81,4.77-3.72-.38-6.29-3.81-5.66-7.43.43-2.54,2.3-4.46,4.63-5.09l1.18-6.89c.28-1.64-.33-3.3-1.61-4.35-.85-.71-1.9-1.07-2.97-1.07-.54,0-1.09.1-1.61.29l-6.48,2.4c-.19,2.57-1.94,4.91-4.64,5.67-3.02.86-6.28-.67-7.56-3.54-1.51-3.4.18-7.31,3.61-8.59,2.42-.89,5.03-.23,6.74,1.48l6.41-2.37c1.59-.59,2.75-1.98,3.04-3.66.05-.27.07-.54.07-.81,0-1.28-.52-2.51-1.45-3.41-9.68-9.28-15.31-22.41-15.25-35.87,0-9.51,2.69-18.75,7.78-26.74,4.95-7.77,11.93-14.01,20.2-18.05,2.09-1.02,4.28-1.9,6.49-2.62.17-.06.35-.11.52-.16.43-2.27,2.08-4.25,4.51-4.95,3.03-.88,6.31.65,7.59,3.53,1.52,3.4-.17,7.32-3.61,8.6-2.65.98-5.54.09-7.21-2.01-2.03.65-4.04,1.45-5.96,2.39-15.42,7.53-25,22.86-25,40.01,0,11.75,4.74,23.15,13.01,31.44,1.24,1.24,3.09,1.64,4.73,1.03.76-.28,1.41-.75,1.9-1.35.5-.59.84-1.32.97-2.12l1.18-6.88c-2.12-1.46-3.27-4.15-2.57-6.87.77-3.02,3.7-5.07,6.81-4.75,3.72.37,6.29,3.8,5.66,7.43-.43,2.55-2.32,4.48-4.66,5.1l-1.16,6.78c-.28,1.64.34,3.3,1.61,4.36.84.7,1.89,1.07,2.96,1.07.54,0,1.09-.1,1.62-.29l6.55-2.42c.18-2.42,1.73-4.62,4.15-5.51,3.45-1.28,7.29.61,8.35,4.2.88,3-.59,6.25-3.42,7.56Z"/>
  <path class="cls-3" d="m184.65,254.2c-2.54,1.18-5.4.55-7.23-1.28l-6.41,2.37c-1.59.59-2.75,1.99-3.04,3.66-.05.27-.07.54-.07.81,0,1.27.51,2.51,1.44,3.41,4.66,4.48,8.37,9.78,10.99,15.69,2.83,6.37,4.26,13.16,4.26,20.19,0,9.51-2.69,18.75-7.78,26.74-4.95,7.77-11.94,14.01-20.2,18.05-2.09,1.02-4.27,1.9-6.49,2.62-.18.06-.35.11-.53.17-.43,2.27-2.08,4.25-4.51,4.95-3.03.88-6.3-.65-7.59-3.53-1.52-3.41.18-7.32,3.61-8.6,2.65-.98,5.54-.09,7.2,2.01h0c2.03-.65,4.04-1.45,5.96-2.39,15.42-7.53,25-22.86,25-40.01,0-11.75-4.74-23.15-13-31.43-1.24-1.24-3.09-1.64-4.74-1.03-.75.28-1.41.75-1.9,1.35-.49.59-.83,1.32-.97,2.11l-1.18,6.89c2.13,1.46,3.27,4.14,2.57,6.86-.77,3.03-3.7,5.07-6.8,4.76-3.72-.37-6.29-3.81-5.67-7.43.43-2.54,2.32-4.48,4.67-5.1l1.16-6.79c.28-1.63-.34-3.29-1.61-4.35-.85-.71-1.9-1.07-2.97-1.07-.54,0-1.08.1-1.61.29l-6.55,2.42c-.19,2.57-1.94,4.9-4.64,5.67-3.02.86-6.28-.67-7.55-3.54-1.51-3.4.18-7.31,3.61-8.59,2.42-.89,5.03-.23,6.73,1.48l6.55-2.42c1.56-.58,2.69-1.94,2.97-3.58.05-.26.06-.52.06-.77,0-1.37-.6-2.68-1.68-3.58l-5.39-4.48c-2.32,1.12-5.22.77-7.23-1.18-2.25-2.19-2.56-5.78-.71-8.32,2.19-3.01,6.43-3.5,9.25-1.17,1.99,1.65,2.71,4.24,2.09,6.58l5.39,4.48c1.28,1.06,3.02,1.36,4.58.78.78-.29,1.45-.77,1.96-1.39.51-.62.87-1.36,1-2.18l1.17-6.87c-2.14-1.46-3.29-4.15-2.6-6.87.77-3.03,3.7-5.08,6.81-4.77,3.72.37,6.29,3.8,5.67,7.43-.43,2.54-2.3,4.46-4.64,5.09l-1.18,6.88c-.28,1.64.34,3.3,1.61,4.36.84.7,1.89,1.07,2.96,1.07.54,0,1.09-.1,1.61-.29l6.48-2.39c.18-2.42,1.73-4.62,4.15-5.51,3.45-1.28,7.29.61,8.35,4.2.88,3-.59,6.25-3.42,7.57Z"/>
  <text class="cls-5" transform="translate(251.06 287.98)"><tspan class="cls-1"><tspan x="0" y="0">neuromatch</tspan></tspan><tspan class="cls-4"><tspan x="0" y="66.25">open publishing</tspan></tspan></text>
</svg>